<svg xmlns="http://www.w3.org/2000/svg" style="isolation:isolate" viewBox="0 0 132 132"><defs><clipPath id="a"><path d="M0 0h132v132H0z"/></clipPath></defs><g clip-path="url(#a)"><path d="M132 124c0 4.4-3.6 8-8 8H8c-4.4 0-8-3.6-8-8V8c0-4.4 3.6-8 8-8h116c4.4 0 8 3.6 8 8v116" fill="#FFF"/><path d="M132 124c0 4.4-3.6 8-8 8H8c-4.4 0-8-3.6-8-8V8c0-4.4 3.6-8 8-8h116c4.4 0 8 3.6 8 8v116z" fill="none" vector-effect="non-scaling-stroke" stroke-width="4" stroke="#D3D4D3" stroke-miterlimit="10"/><path d="M112 68c0 24.301-19.693 44-44 44-24.293 0-44-19.699-44-44s19.707-44 44-44c24.307 0 44 19.699 44 44z" fill="#36A53E"/><path d="M66.013 93.968h-6.16V56.6h-5.506c-6.267 0-11.36 5.1-11.36 11.368 0 6.269 5.093 11.368 11.36 11.368h1.613v6.157h-1.613c-9.654 0-17.52-7.861-17.52-17.525 0-9.663 7.866-17.524 17.52-17.524h11.666v43.524m15.574-8.475H69.933V41.968h6.147v37.368h5.507c6.28 0 11.373-5.1 11.373-11.368 0-6.268-5.093-11.368-11.373-11.368h-1.6v-6.157h1.6c9.666 0 17.533 7.862 17.533 17.525 0 9.664-7.867 17.525-17.533 17.525" fill="#FFF"/></g></svg>