<svg xmlns="http://www.w3.org/2000/svg" style="isolation:isolate" viewBox="0 0 775.39 132"><defs><clipPath id="a"><path d="M0 0h775.39v132H0z"/></clipPath></defs><g clip-path="url(#a)"><path d="M775.395 124c0 4.4-3.6 8-8 8H8c-4.4 0-8-3.6-8-8V8c0-4.4 3.6-8 8-8h759.395c4.4 0 8 3.6 8 8v116z" fill="#FFF"/><path d="M775.395 124c0 4.4-3.6 8-8 8H8c-4.4 0-8-3.6-8-8V8c0-4.4 3.6-8 8-8h759.395c4.4 0 8 3.6 8 8v116z" fill="none" vector-effect="non-scaling-stroke" stroke-width="4" stroke="#D3D4D3" stroke-miterlimit="10"/><path d="M179.107 57.437c-1.034-1.401-2.379-2.425-4.039-3.07-1.66-.646-3.284-.968-4.868-.968-2.029 0-3.873.369-5.532 1.106a12.987 12.987 0 0 0-4.288 3.043c-1.199 1.291-2.121 2.803-2.765 4.536-.647 1.733-.97 3.615-.97 5.643 0 2.14.314 4.094.942 5.864.626 1.77 1.521 3.292 2.682 4.564a12.046 12.046 0 0 0 4.178 2.96c1.621.701 3.448 1.05 5.476 1.05 2.102 0 3.964-.414 5.588-1.244 1.622-.83 2.932-1.928 3.928-3.292l5.586 3.928a17.887 17.887 0 0 1-6.361 5.062c-2.509 1.198-5.44 1.798-8.796 1.798-3.061 0-5.873-.508-8.437-1.521-2.564-1.015-4.767-2.435-6.611-4.26-1.844-1.825-3.283-4.001-4.315-6.528-1.033-2.525-1.549-5.32-1.549-8.381 0-3.135.544-5.966 1.632-8.492 1.088-2.526 2.581-4.675 4.481-6.444 1.899-1.771 4.14-3.135 6.722-4.095 2.581-.957 5.384-1.439 8.409-1.439 1.253 0 2.563.12 3.927.36 1.365.24 2.674.61 3.929 1.107a19.036 19.036 0 0 1 3.54 1.853 11.43 11.43 0 0 1 2.821 2.656l-5.31 4.204m13.056 16.596a10.6 10.6 0 0 0 .47 3.099 8.47 8.47 0 0 0 1.411 2.765 7.401 7.401 0 0 0 2.377 1.992c.96.516 2.103.774 3.431.774 1.328 0 2.471-.258 3.431-.774a7.426 7.426 0 0 0 2.378-1.992 8.569 8.569 0 0 0 1.411-2.765c.312-1.033.469-2.065.469-3.099a10.39 10.39 0 0 0-.469-3.07 8.644 8.644 0 0 0-1.411-2.739 7.128 7.128 0 0 0-2.378-1.964c-.96-.497-2.103-.745-3.431-.745-1.328 0-2.471.248-3.431.745a7.105 7.105 0 0 0-2.377 1.964 8.543 8.543 0 0 0-1.411 2.739 10.327 10.327 0 0 0-.47 3.07zm-6.75 0c0-2.101.378-4.01 1.135-5.725.755-1.715 1.779-3.181 3.069-4.397 1.291-1.219 2.822-2.159 4.592-2.823 1.771-.664 3.652-.996 5.643-.996 1.992 0 3.873.332 5.643.996 1.77.664 3.3 1.604 4.592 2.823 1.29 1.216 2.313 2.682 3.07 4.397.755 1.715 1.134 3.624 1.134 5.725 0 2.103-.379 4.02-1.134 5.754-.757 1.733-1.78 3.218-3.07 4.453-1.292 1.236-2.822 2.204-4.592 2.904-1.77.701-3.651 1.052-5.643 1.052-1.991 0-3.872-.351-5.643-1.052-1.77-.7-3.301-1.668-4.592-2.904-1.29-1.235-2.314-2.72-3.069-4.453-.757-1.734-1.135-3.651-1.135-5.754zm33.911-13.166h6.307v4.26h.11c.59-1.328 1.612-2.498 3.07-3.514 1.457-1.013 3.181-1.521 5.173-1.521 1.733 0 3.217.305 4.453.913 1.235.608 2.25 1.411 3.043 2.407a9.776 9.776 0 0 1 1.743 3.429c.368 1.292.553 2.619.553 3.983v16.597h-6.639V72.705c0-.773-.056-1.585-.166-2.434a6.603 6.603 0 0 0-.719-2.295 4.784 4.784 0 0 0-1.521-1.688c-.646-.443-1.503-.664-2.572-.664-1.071 0-1.992.213-2.767.636a5.869 5.869 0 0 0-1.908 1.633 7.205 7.205 0 0 0-1.135 2.295 9.178 9.178 0 0 0-.386 2.628v14.605h-6.639V60.867m30.813 0h6.307v4.26h.111c.589-1.328 1.612-2.498 3.069-3.514 1.457-1.013 3.181-1.521 5.173-1.521 1.734 0 3.218.305 4.454.913 1.234.608 2.249 1.411 3.042 2.407a9.74 9.74 0 0 1 1.742 3.429c.369 1.292.553 2.619.553 3.983v16.597h-6.639V72.705c0-.773-.054-1.585-.165-2.434a6.603 6.603 0 0 0-.719-2.295 4.784 4.784 0 0 0-1.521-1.688c-.647-.443-1.504-.664-2.572-.664-1.071 0-1.992.213-2.767.636a5.89 5.89 0 0 0-1.908 1.633 7.203 7.203 0 0 0-1.134 2.295 9.145 9.145 0 0 0-.387 2.628v14.605h-6.639V60.867m49.511 10.621a8.2 8.2 0 0 0-.359-2.433 5.598 5.598 0 0 0-1.134-2.047c-.516-.589-1.171-1.06-1.964-1.412-.794-.349-1.724-.524-2.794-.524-1.992 0-3.678.599-5.061 1.797-1.384 1.199-2.149 2.739-2.296 4.619h13.608zm6.639 2.988v.885c0 .295-.019.591-.055.884H286.04a6.575 6.575 0 0 0 2.433 4.676 8.421 8.421 0 0 0 2.379 1.356 7.833 7.833 0 0 0 2.767.496c1.66 0 3.06-.304 4.204-.912a7.861 7.861 0 0 0 2.821-2.517l4.425 3.54c-2.618 3.54-6.417 5.312-11.396 5.312-2.065 0-3.964-.324-5.697-.968-1.735-.645-3.236-1.559-4.509-2.74-1.272-1.179-2.268-2.627-2.987-4.343-.72-1.713-1.079-3.658-1.079-5.836 0-2.137.359-4.084 1.079-5.836.719-1.75 1.705-3.244 2.96-4.48 1.253-1.236 2.737-2.194 4.453-2.877 1.715-.683 3.568-1.024 5.559-1.024 1.844 0 3.549.305 5.117.913a11.09 11.09 0 0 1 4.067 2.711c1.143 1.199 2.037 2.692 2.683 4.481.645 1.79.968 3.882.968 6.279m23.178-6.252c-.516-.736-1.29-1.355-2.322-1.852-1.034-.499-2.084-.748-3.154-.748-1.217 0-2.288.249-3.209.748a6.973 6.973 0 0 0-2.296 1.963 8.474 8.474 0 0 0-1.355 2.74 10.893 10.893 0 0 0-.442 3.069c0 1.033.156 2.056.47 3.071a8.556 8.556 0 0 0 1.41 2.738 7.156 7.156 0 0 0 2.352 1.963c.94.499 2.037.747 3.292.747a8.406 8.406 0 0 0 3.097-.608c1.032-.406 1.863-.996 2.489-1.771l4.15 4.204c-1.107 1.181-2.518 2.095-4.232 2.74-1.715.644-3.568.968-5.56.968a16.4 16.4 0 0 1-5.56-.941c-1.752-.627-3.283-1.55-4.591-2.767-1.309-1.216-2.343-2.691-3.099-4.424-.756-1.733-1.133-3.708-1.133-5.92 0-2.139.377-4.075 1.133-5.809s1.779-3.208 3.071-4.424a13.69 13.69 0 0 1 4.508-2.823c1.716-.664 3.549-.996 5.505-.996 1.955 0 3.844.369 5.671 1.107 1.825.738 3.272 1.752 4.343 3.042l-4.538 3.983m5.588-2.047v-5.31h4.647v-7.69h6.528v7.69h6.639v5.31h-6.639v12.338c0 1.18.212 2.157.636 2.932.423.774 1.373 1.161 2.849 1.161.443 0 .922-.045 1.438-.139a5.736 5.736 0 0 0 1.382-.414l.222 5.2c-.59.221-1.291.396-2.102.525-.812.129-1.586.195-2.324.195-1.769 0-3.208-.25-4.314-.747-1.107-.499-1.983-1.181-2.628-2.047-.646-.866-1.088-1.862-1.327-2.988a17.274 17.274 0 0 1-.36-3.624V66.177h-4.647m29.872 0v-5.31h4.647v-7.69h6.528v7.69h6.639v5.31H376.1v12.338c0 1.18.212 2.157.636 2.932.424.774 1.373 1.161 2.849 1.161a8.06 8.06 0 0 0 1.439-.139 5.785 5.785 0 0 0 1.383-.414l.221 5.2c-.591.221-1.291.396-2.103.525a14.8 14.8 0 0 1-2.324.195c-1.769 0-3.208-.25-4.313-.747-1.107-.499-1.984-1.181-2.629-2.047-.644-.866-1.087-1.862-1.327-2.988a17.34 17.34 0 0 1-.36-3.624V66.177h-4.647m26.443 7.856c0 1.034.157 2.066.471 3.099a8.468 8.468 0 0 0 1.41 2.765 7.398 7.398 0 0 0 2.379 1.992c.959.516 2.101.774 3.431.774 1.326 0 2.469-.258 3.429-.774a7.409 7.409 0 0 0 2.379-1.992 8.527 8.527 0 0 0 1.41-2.765 10.67 10.67 0 0 0 .471-3.099c0-1.032-.159-2.056-.471-3.07a8.601 8.601 0 0 0-1.41-2.739 7.112 7.112 0 0 0-2.379-1.964c-.96-.497-2.103-.745-3.429-.745-1.33 0-2.472.248-3.431.745a7.102 7.102 0 0 0-2.379 1.964 8.541 8.541 0 0 0-1.41 2.739 10.328 10.328 0 0 0-.471 3.07zm-6.749 0c0-2.101.378-4.01 1.134-5.725.755-1.715 1.779-3.181 3.071-4.397 1.291-1.219 2.82-2.159 4.591-2.823 1.77-.664 3.652-.996 5.644-.996 1.99 0 3.872.332 5.641.996 1.771.664 3.301 1.604 4.592 2.823 1.291 1.216 2.315 2.682 3.071 4.397.754 1.715 1.134 3.624 1.134 5.725 0 2.103-.38 4.02-1.134 5.754-.756 1.733-1.78 3.218-3.071 4.453-1.291 1.236-2.821 2.204-4.592 2.904-1.769.701-3.651 1.052-5.641 1.052-1.992 0-3.874-.351-5.644-1.052-1.771-.7-3.3-1.668-4.591-2.904-1.292-1.235-2.316-2.72-3.071-4.453-.756-1.734-1.134-3.651-1.134-5.754zm65.388-20.524c-1.88 0-3.642.351-5.283 1.051-1.641.701-3.052 1.66-4.232 2.877-1.181 1.218-2.112 2.675-2.793 4.371-.684 1.696-1.024 3.54-1.024 5.532 0 2.101.322 4.011.968 5.725.645 1.715 1.549 3.18 2.71 4.398 1.162 1.217 2.554 2.166 4.178 2.849 1.622.683 3.41 1.024 5.365 1.024 1.917 0 3.697-.341 5.339-1.024 1.641-.683 3.05-1.632 4.232-2.849 1.18-1.218 2.102-2.683 2.766-4.398.663-1.714.995-3.624.995-5.725 0-1.992-.313-3.836-.94-5.532-.627-1.696-1.521-3.153-2.683-4.371-1.161-1.217-2.554-2.176-4.177-2.877-1.623-.7-3.429-1.051-5.421-1.051zm23.512 33.912h-23.623c-3.135 0-5.984-.452-8.547-1.356-2.564-.902-4.757-2.212-6.582-3.928-1.826-1.714-3.236-3.816-4.234-6.306-.994-2.49-1.493-5.319-1.493-8.491 0-2.988.525-5.708 1.577-8.161 1.051-2.451 2.518-4.563 4.398-6.334 1.881-1.77 4.102-3.144 6.666-4.121 2.563-.977 5.339-1.467 8.326-1.467 2.988 0 5.753.49 8.298 1.467 2.544.977 4.748 2.351 6.611 4.121 1.863 1.771 3.311 3.883 4.343 6.334 1.032 2.453 1.549 5.173 1.549 8.161 0 1.771-.203 3.393-.608 4.868-.407 1.476-.932 2.812-1.577 4.011-.646 1.198-1.383 2.249-2.214 3.153a16.23 16.23 0 0 1-2.572 2.296v.111h9.682v5.642m27.438 0h-6.306v-4.26h-.111c-.591 1.327-1.613 2.499-3.071 3.514-1.457 1.013-3.181 1.521-5.172 1.521-1.734 0-3.218-.305-4.453-.913-1.236-.608-2.251-1.411-3.043-2.407a9.707 9.707 0 0 1-1.742-3.429 14.388 14.388 0 0 1-.554-3.984V60.867h6.639v14.716c0 .773.056 1.585.167 2.434.11.848.349 1.612.718 2.295A4.75 4.75 0 0 0 485.551 82c.645.441 1.502.663 2.572.663 1.032 0 1.945-.211 2.738-.636.792-.423 1.439-.968 1.936-1.632a7.22 7.22 0 0 0 1.135-2.296 9.197 9.197 0 0 0 .387-2.627V60.867h6.638v26.554m6.694-26.554h6.638v26.554h-6.638V60.867zm-.942-9.018c0-1.069.398-2 1.19-2.793.793-.793 1.798-1.189 3.016-1.189 1.217 0 2.24.378 3.069 1.133.831.757 1.245 1.707 1.245 2.849 0 1.144-.414 2.095-1.245 2.85-.829.756-1.852 1.133-3.069 1.133-1.218 0-2.223-.396-3.016-1.188-.792-.793-1.19-1.724-1.19-2.795zm32.418 16.375c-.516-.736-1.291-1.355-2.323-1.852-1.033-.499-2.084-.748-3.153-.748-1.218 0-2.287.249-3.21.748a6.983 6.983 0 0 0-2.296 1.963 8.451 8.451 0 0 0-1.354 2.74 10.895 10.895 0 0 0-.443 3.069c0 1.033.157 2.056.471 3.071a8.554 8.554 0 0 0 1.409 2.738 7.176 7.176 0 0 0 2.352 1.963c.94.499 2.037.747 3.292.747a8.406 8.406 0 0 0 3.097-.608c1.032-.406 1.863-.996 2.49-1.771l4.149 4.204c-1.105 1.181-2.517 2.095-4.232 2.74-1.715.644-3.568.968-5.56.968a16.4 16.4 0 0 1-5.56-.941c-1.751-.627-3.283-1.55-4.591-2.767-1.309-1.216-2.342-2.691-3.098-4.424-.756-1.733-1.134-3.708-1.134-5.92 0-2.139.378-4.075 1.134-5.809.756-1.734 1.778-3.208 3.07-4.424a13.7 13.7 0 0 1 4.508-2.823c1.716-.664 3.551-.996 5.506-.996 1.954 0 3.844.369 5.67 1.107s3.272 1.752 4.343 3.042l-4.537 3.983m7.578-22.625h6.639v26.442h.167l10.068-11.174h8.52l-11.508 12.005 12.226 14.549h-8.796l-10.51-13.609h-.167v13.609h-6.639V45.599m35.848 35.958h6.252c.886 0 1.843-.064 2.876-.194a9.41 9.41 0 0 0 2.85-.802 5.597 5.597 0 0 0 2.157-1.77c.572-.774.857-1.807.857-3.098 0-2.065-.701-3.504-2.101-4.316-1.403-.81-3.523-1.217-6.363-1.217h-6.528v11.397zm0-17.37h6.196c2.324 0 4.094-.462 5.312-1.384 1.216-.922 1.826-2.231 1.826-3.928 0-1.77-.628-3.023-1.882-3.762-1.254-.737-3.209-1.106-5.864-1.106h-5.588v10.18zm-6.969-15.934h15.268c1.475 0 2.932.176 4.371.526 1.438.35 2.718.922 3.844 1.716 1.125.793 2.037 1.816 2.738 3.07.7 1.254 1.052 2.766 1.052 4.535 0 2.213-.628 4.039-1.881 5.477-1.255 1.439-2.896 2.472-4.924 3.099v.111c2.471.332 4.5 1.29 6.085 2.876 1.586 1.586 2.379 3.706 2.379 6.362 0 2.139-.424 3.938-1.272 5.394a10.186 10.186 0 0 1-3.348 3.513c-1.383.885-2.968 1.521-4.756 1.908a25.66 25.66 0 0 1-5.449.581h-14.107V48.253m39.276 25.78c0 1.034.156 2.066.471 3.099a8.468 8.468 0 0 0 1.41 2.765 7.384 7.384 0 0 0 2.378 1.992c.96.516 2.102.774 3.43.774 1.328 0 2.471-.258 3.43-.774a7.423 7.423 0 0 0 2.38-1.992 8.566 8.566 0 0 0 1.41-2.765c.312-1.033.47-2.065.47-3.099 0-1.032-.158-2.056-.47-3.07a8.642 8.642 0 0 0-1.41-2.739 7.126 7.126 0 0 0-2.38-1.964c-.959-.497-2.102-.745-3.43-.745-1.328 0-2.47.248-3.43.745a7.089 7.089 0 0 0-2.378 1.964 8.541 8.541 0 0 0-1.41 2.739 10.296 10.296 0 0 0-.471 3.07zm-6.749 0c0-2.101.377-4.01 1.134-5.725.755-1.715 1.779-3.181 3.07-4.397 1.29-1.219 2.821-2.159 4.592-2.823 1.77-.664 3.652-.996 5.642-.996 1.992 0 3.872.332 5.643.996 1.771.664 3.3 1.604 4.592 2.823 1.291 1.216 2.313 2.682 3.071 4.397.754 1.715 1.133 3.624 1.133 5.725 0 2.103-.379 4.02-1.133 5.754-.758 1.733-1.78 3.218-3.071 4.453-1.292 1.236-2.821 2.204-4.592 2.904-1.771.701-3.651 1.052-5.643 1.052-1.99 0-3.872-.351-5.642-1.052-1.771-.7-3.302-1.668-4.592-2.904-1.291-1.235-2.315-2.72-3.07-4.453-.757-1.734-1.134-3.651-1.134-5.754zm39.112 0c0 1.034.156 2.066.469 3.099a8.51 8.51 0 0 0 1.411 2.765 7.394 7.394 0 0 0 2.378 1.992c.959.516 2.103.774 3.431.774 1.327 0 2.469-.258 3.429-.774a7.409 7.409 0 0 0 2.379-1.992 8.529 8.529 0 0 0 1.411-2.765c.313-1.033.47-2.065.47-3.099a10.36 10.36 0 0 0-.47-3.07 8.604 8.604 0 0 0-1.411-2.739 7.112 7.112 0 0 0-2.379-1.964c-.96-.497-2.102-.745-3.429-.745-1.328 0-2.472.248-3.431.745a7.099 7.099 0 0 0-2.378 1.964 8.583 8.583 0 0 0-1.411 2.739 10.358 10.358 0 0 0-.469 3.07zm-6.75 0c0-2.101.378-4.01 1.134-5.725.756-1.715 1.778-3.181 3.07-4.397 1.291-1.219 2.822-2.159 4.591-2.823 1.771-.664 3.652-.996 5.644-.996 1.991 0 3.872.332 5.643.996 1.769.664 3.3 1.604 4.59 2.823 1.291 1.216 2.315 2.682 3.071 4.397.756 1.715 1.135 3.624 1.135 5.725 0 2.103-.379 4.02-1.135 5.754-.756 1.733-1.78 3.218-3.071 4.453-1.29 1.236-2.821 2.204-4.59 2.904-1.771.701-3.652 1.052-5.643 1.052-1.992 0-3.873-.351-5.644-1.052-1.769-.7-3.3-1.668-4.591-2.904-1.292-1.235-2.314-2.72-3.07-4.453-.756-1.734-1.134-3.651-1.134-5.754zm34.022-28.434h6.637v26.442h.167l10.068-11.174h8.52L688.38 72.872l12.227 14.549h-8.798l-10.51-13.609h-.167v13.609h-6.637V45.599" fill="#47AD3A"/><path d="M717.259 67.948c-.59-.775-1.403-1.447-2.434-2.019a6.85 6.85 0 0 0-3.374-.857c-1.071 0-2.048.221-2.934.664-.885.441-1.328 1.18-1.328 2.212 0 1.033.49 1.761 1.467 2.185.976.424 2.407.858 4.288 1.3.996.222 2 .518 3.015.884 1.013.37 1.937.859 2.766 1.467a7.228 7.228 0 0 1 2.019 2.268c.516.905.773 2.001.773 3.292 0 1.623-.302 2.997-.912 4.121a7.748 7.748 0 0 1-2.433 2.739c-1.015.701-2.196 1.208-3.541 1.521a18.327 18.327 0 0 1-4.178.471c-2.064 0-4.074-.379-6.029-1.135-1.956-.756-3.579-1.834-4.868-3.236l4.371-4.093c.737.959 1.694 1.752 2.876 2.379 1.18.628 2.489.94 3.928.94a6.72 6.72 0 0 0 1.465-.167c.499-.111.96-.285 1.384-.525a2.872 2.872 0 0 0 1.024-.968c.256-.406.387-.903.387-1.494 0-1.106-.508-1.898-1.522-2.378-1.016-.48-2.536-.959-4.564-1.439a21.624 21.624 0 0 1-2.904-.857 9.485 9.485 0 0 1-2.517-1.383 6.402 6.402 0 0 1-1.771-2.129c-.442-.85-.664-1.9-.664-3.155 0-1.475.304-2.747.912-3.817a7.874 7.874 0 0 1 2.408-2.627 10.738 10.738 0 0 1 3.374-1.521 14.982 14.982 0 0 1 3.873-.499c1.917 0 3.789.332 5.615.996 1.826.664 3.273 1.679 4.342 3.043l-4.314 3.817" fill="#47AD3A"/><path d="M108.784 65.952c0 24.301-19.699 44-44 44s-44-19.699-44-44 19.699-44 44-44 44 19.699 44 44z" fill="#36A53E"/><path d="M62.793 91.92h-6.157V54.552H51.13c-6.269 0-11.369 5.1-11.369 11.368 0 6.269 5.1 11.368 11.369 11.368h1.604v6.157H51.13c-9.663 0-17.525-7.861-17.525-17.525 0-9.663 7.862-17.524 17.525-17.524h11.663V91.92m15.579-8.475H66.709V39.92h6.157v37.368h5.506c6.268 0 11.369-5.1 11.369-11.368 0-6.268-5.101-11.368-11.369-11.368h-1.604v-6.157h1.604c9.663 0 17.525 7.862 17.525 17.525 0 9.664-7.862 17.525-17.525 17.525" fill="#FFF"/></g></svg>