<svg xmlns="http://www.w3.org/2000/svg" style="isolation:isolate" viewBox="0 0 392.676 132"><defs><clipPath id="a"><path d="M0 0h392.676v132H0z"/></clipPath></defs><g clip-path="url(#a)"><path d="M390.445 124c0 4.4-3.58 8-7.955 8H7.955C3.58 132 0 128.4 0 124V8c0-4.4 3.58-8 7.955-8H382.49c4.375 0 7.955 3.6 7.955 8v116z" fill="#FFF"/><path d="M390.841 124c0 4.4-10.659 8-23.687 8H23.687C10.659 132 0 128.4 0 124V8c0-4.4 10.659-8 23.687-8h343.467c13.028 0 23.687 3.6 23.687 8v116z" fill="none" vector-effect="non-scaling-stroke" stroke-width="3.989" stroke="#D3D4D3" stroke-miterlimit="10"/><path d="M173.857 58.152c-1.027-1.401-2.364-2.425-4.016-3.069-1.649-.646-3.262-.97-4.839-.97-2.017 0-3.851.37-5.5 1.107a12.904 12.904 0 0 0-4.265 3.043c-1.191 1.29-2.107 2.802-2.75 4.536-.641 1.734-.962 3.614-.962 5.642 0 2.14.31 4.095.934 5.866.624 1.769 1.515 3.29 2.669 4.562a11.981 11.981 0 0 0 4.154 2.96c1.613.702 3.428 1.051 5.446 1.051 2.089 0 3.94-.415 5.554-1.244 1.613-.829 2.915-1.928 3.904-3.292l5.558 3.928a17.81 17.81 0 0 1-6.327 5.061c-2.492 1.199-5.409 1.799-8.746 1.799-3.043 0-5.84-.508-8.387-1.521-2.551-1.015-4.742-2.435-6.574-4.26-1.834-1.826-3.263-4.002-4.292-6.528-1.024-2.526-1.54-5.32-1.54-8.382 0-3.134.541-5.965 1.624-8.492 1.082-2.525 2.565-4.674 4.456-6.444 1.888-1.77 4.115-3.134 6.683-4.094 2.567-.958 5.352-1.438 8.361-1.438 1.245 0 2.549.12 3.905.359 1.356.241 2.659.609 3.904 1.107a18.947 18.947 0 0 1 3.523 1.853c1.1.739 2.035 1.624 2.804 2.656l-5.281 4.204m12.983 16.597c0 1.032.157 2.066.467 3.098a8.495 8.495 0 0 0 1.404 2.765 7.337 7.337 0 0 0 2.364 1.992c.952.517 2.092.773 3.41.773 1.32 0 2.452-.256 3.407-.773.954-.516 1.75-1.18 2.373-1.992a8.676 8.676 0 0 0 1.405-2.765 10.9 10.9 0 0 0 .464-3.098c0-1.033-.159-2.057-.464-3.07a8.734 8.734 0 0 0-1.405-2.739 7.067 7.067 0 0 0-2.373-1.964c-.955-.499-2.087-.747-3.407-.747-1.318 0-2.458.248-3.41.747a7.043 7.043 0 0 0-2.364 1.964 8.547 8.547 0 0 0-1.404 2.739 10.444 10.444 0 0 0-.467 3.07zm-6.711 0c0-2.102.375-4.012 1.126-5.726.754-1.715 1.771-3.182 3.053-4.398 1.285-1.217 2.807-2.157 4.569-2.821 1.758-.664 3.63-.997 5.608-.997 1.98 0 3.844.333 5.608.997 1.763.664 3.288 1.604 4.573 2.821 1.273 1.216 2.294 2.683 3.05 4.398.755 1.714 1.127 3.624 1.127 5.726s-.372 4.019-1.127 5.752c-.756 1.735-1.777 3.219-3.05 4.454-1.285 1.237-2.81 2.204-4.573 2.904-1.764.701-3.628 1.052-5.608 1.052-1.978 0-3.85-.351-5.608-1.052-1.762-.7-3.284-1.667-4.569-2.904-1.282-1.235-2.299-2.719-3.053-4.454-.751-1.733-1.126-3.65-1.126-5.752zm33.725-13.166h6.257v4.258h.12c.583-1.326 1.604-2.497 3.049-3.513 1.445-1.013 3.169-1.521 5.144-1.521 1.723 0 3.195.305 4.428.913 1.233.608 2.241 1.411 3.023 2.407.795.996 1.365 2.14 1.736 3.429.358 1.292.544 2.62.544 3.984v16.596h-6.602V73.42c0-.773-.053-1.585-.159-2.433a6.429 6.429 0 0 0-.716-2.296 4.843 4.843 0 0 0-1.511-1.688c-.637-.442-1.499-.663-2.559-.663-1.061 0-1.976.212-2.745.636a5.994 5.994 0 0 0-1.909 1.632c-.49.663-.861 1.429-1.127 2.296a9.414 9.414 0 0 0-.384 2.627v14.605h-6.589V61.583m30.625 0h6.271v4.258h.119c.583-1.326 1.604-2.497 3.049-3.513 1.445-1.013 3.156-1.521 5.144-1.521 1.724 0 3.195.305 4.428.913 1.233.608 2.241 1.411 3.023 2.407.795.996 1.366 2.14 1.737 3.429.358 1.292.543 2.62.543 3.984v16.596h-6.602V73.42c0-.773-.053-1.585-.159-2.433a6.429 6.429 0 0 0-.716-2.296 4.843 4.843 0 0 0-1.511-1.688c-.637-.442-1.498-.663-2.559-.663-1.061 0-1.975.212-2.744.636a5.984 5.984 0 0 0-1.909 1.632c-.491.663-.862 1.429-1.127 2.296a9.379 9.379 0 0 0-.385 2.627v14.605h-6.602V61.583m49.239 10.621c0-.848-.12-1.66-.358-2.435a5.727 5.727 0 0 0-1.127-2.046c-.517-.59-1.167-1.06-1.962-1.411-.783-.351-1.711-.525-2.771-.525-1.989 0-3.659.598-5.038 1.797-1.379 1.199-2.135 2.739-2.28 4.62h13.536zm6.602 2.987v.885c0 .296-.027.591-.066.885h-20.072c.079.959.318 1.835.742 2.628a6.783 6.783 0 0 0 1.671 2.047 8.543 8.543 0 0 0 2.373 1.356 7.745 7.745 0 0 0 2.744.497c1.657 0 3.049-.305 4.189-.913a7.859 7.859 0 0 0 2.798-2.517L299.1 83.6c-2.598 3.54-6.377 5.311-11.322 5.311-2.055 0-3.951-.324-5.674-.968-1.723-.646-3.222-1.559-4.481-2.739-1.26-1.18-2.254-2.628-2.97-4.343-.716-1.714-1.074-3.66-1.074-5.836 0-2.138.358-4.085 1.074-5.836.716-1.752 1.697-3.245 2.943-4.481 1.247-1.235 2.718-2.195 4.428-2.877 1.711-.682 3.553-1.024 5.529-1.024 1.829 0 3.526.305 5.091.913a11.121 11.121 0 0 1 4.043 2.711c1.127 1.198 2.029 2.693 2.665 4.481.636 1.789.968 3.883.968 6.279m23.042-6.251c-.518-.737-1.286-1.356-2.307-1.853-1.034-.499-2.082-.747-3.142-.747-1.207 0-2.267.248-3.182.747a6.926 6.926 0 0 0-2.294 1.962 8.635 8.635 0 0 0-1.339 2.74 11.105 11.105 0 0 0-.45 3.07 10.2 10.2 0 0 0 .477 3.07 8.48 8.48 0 0 0 1.405 2.739 7.073 7.073 0 0 0 2.333 1.964c.942.497 2.029.745 3.275.745a8.317 8.317 0 0 0 3.076-.606c1.034-.407 1.856-.998 2.479-1.772l4.123 4.205c-1.1 1.18-2.506 2.093-4.203 2.739-1.71.644-3.553.968-5.528.968-1.949 0-3.792-.315-5.528-.94a13.173 13.173 0 0 1-4.574-2.767c-1.3-1.217-2.32-2.692-3.076-4.425-.756-1.734-1.127-3.707-1.127-5.92 0-2.139.371-4.075 1.127-5.81.756-1.732 1.763-3.208 3.049-4.424a13.733 13.733 0 0 1 4.481-2.821c1.711-.664 3.54-.997 5.476-.997 1.949 0 3.831.369 5.647 1.106 1.803.739 3.249 1.752 4.309 3.043l-4.507 3.984m5.554-2.048v-5.309h4.614v-7.691h6.496v7.691h6.603v5.309h-6.603v12.337c0 1.182.212 2.158.637 2.932.424.775 1.365 1.162 2.824 1.162.45 0 .928-.046 1.431-.139a5.617 5.617 0 0 0 1.379-.413l.225 5.2c-.596.221-1.285.394-2.094.524-.809.129-1.578.194-2.307.194-1.763 0-3.195-.249-4.295-.746-1.101-.499-1.976-1.18-2.612-2.047a7.69 7.69 0 0 1-1.326-2.988 17.412 17.412 0 0 1-.358-3.624V66.892h-4.614m-218.589-.225c0 24.301-19.587 44.001-43.75 44.001-24.162 0-43.75-19.7-43.75-44.001 0-24.3 19.588-44 43.75-44 24.163 0 43.75 19.7 43.75 44z" fill="#36A53E"/><path d="M64.598 92.636h-6.121V55.267h-5.476c-6.232 0-11.303 5.1-11.303 11.368 0 6.269 5.071 11.369 11.303 11.369h1.595v6.156h-1.595c-9.609 0-17.426-7.861-17.426-17.525 0-9.663 7.817-17.524 17.426-17.524h11.597v43.525zm15.49-8.476H68.491V40.635h6.123v37.369h5.474c6.233 0 11.304-5.1 11.304-11.369 0-6.268-5.071-11.368-11.304-11.368h-1.595v-6.156h1.595c9.609 0 17.425 7.861 17.425 17.524 0 9.664-7.816 17.525-17.425 17.525" fill="#FFF"/></g></svg>