<svg xmlns="http://www.w3.org/2000/svg" style="isolation:isolate" viewBox="0 0 392.67 132"><defs><clipPath id="a"><path d="M0 0h392.67v132H0z"/></clipPath></defs><g clip-path="url(#a)"><path d="M392.673 124c0 4.4-3.6 8-8 8H8c-4.4 0-8-3.6-8-8V8c0-4.4 3.6-8 8-8h376.673c4.4 0 8 3.6 8 8v116z" fill="#328538"/><path d="M392.673 124c0 4.4-3.6 8-8 8H8c-4.4 0-8-3.6-8-8V8c0-4.4 3.6-8 8-8h376.673c4.4 0 8 3.6 8 8v116z" fill="none" vector-effect="non-scaling-stroke" stroke-width="4" stroke="#328538" stroke-miterlimit="10"/><path d="M173.912 56.127c-1.033-1.402-2.379-2.424-4.039-3.071-1.66-.644-3.282-.967-4.869-.967-2.028 0-3.872.368-5.531 1.106a12.97 12.97 0 0 0-4.288 3.042c-1.198 1.292-2.121 2.804-2.765 4.536-.645 1.735-.969 3.615-.969 5.644 0 2.139.313 4.093.94 5.863.628 1.771 1.522 3.292 2.684 4.564a12.033 12.033 0 0 0 4.177 2.96c1.623.701 3.448 1.052 5.476 1.052 2.103 0 3.964-.416 5.588-1.246 1.623-.83 2.932-1.926 3.927-3.29l5.589 3.926a17.912 17.912 0 0 1-6.363 5.063c-2.509 1.198-5.441 1.798-8.797 1.798-3.061 0-5.873-.507-8.436-1.522-2.564-1.015-4.767-2.433-6.611-4.26-1.845-1.825-3.282-4.001-4.314-6.528-1.034-2.525-1.55-5.318-1.55-8.38 0-3.136.544-5.966 1.632-8.492 1.088-2.527 2.582-4.674 4.482-6.445 1.9-1.77 4.138-3.135 6.721-4.095 2.581-.957 5.384-1.437 8.408-1.437 1.255 0 2.564.12 3.929.36 1.363.238 2.674.608 3.927 1.105a19.1 19.1 0 0 1 3.54 1.855 11.351 11.351 0 0 1 2.821 2.654l-5.309 4.205m13.056 16.595c0 1.034.156 2.067.471 3.099a8.496 8.496 0 0 0 1.409 2.767 7.406 7.406 0 0 0 2.379 1.991c.958.517 2.104.774 3.43.774 1.328 0 2.471-.257 3.431-.774a7.398 7.398 0 0 0 2.377-1.991 8.522 8.522 0 0 0 1.412-2.767c.312-1.032.47-2.065.47-3.099a10.39 10.39 0 0 0-.47-3.069 8.56 8.56 0 0 0-1.412-2.738 7.07 7.07 0 0 0-2.377-1.964c-.96-.499-2.103-.747-3.431-.747-1.326 0-2.472.248-3.43.747a7.077 7.077 0 0 0-2.379 1.964 8.533 8.533 0 0 0-1.409 2.738 10.295 10.295 0 0 0-.471 3.069zm-6.749 0c0-2.101.378-4.01 1.133-5.725.757-1.714 1.78-3.18 3.071-4.397 1.292-1.219 2.821-2.159 4.592-2.823 1.769-.664 3.65-.996 5.642-.996 1.992 0 3.872.332 5.643.996 1.771.664 3.301 1.604 4.591 2.823 1.29 1.217 2.314 2.683 3.07 4.397.758 1.715 1.135 3.624 1.135 5.725 0 2.103-.377 4.022-1.135 5.755-.756 1.733-1.78 3.218-3.07 4.454-1.29 1.234-2.82 2.203-4.591 2.902-1.771.701-3.651 1.052-5.643 1.052s-3.873-.351-5.642-1.052c-1.771-.699-3.3-1.668-4.592-2.902-1.291-1.236-2.314-2.721-3.071-4.454-.755-1.733-1.133-3.652-1.133-5.755zm33.908-13.166h6.306v4.261h.107c.6-1.328 1.613-2.498 3.08-3.513 1.453-1.015 3.173-1.523 5.173-1.523 1.734 0 3.214.305 4.454.914 1.226.609 2.24 1.41 3.04 2.406a9.935 9.935 0 0 1 1.746 3.431c.36 1.292.547 2.619.547 3.983V86.11h-6.64V71.395c0-.774-.053-1.585-.16-2.434a6.98 6.98 0 0 0-.72-2.296 4.86 4.86 0 0 0-1.52-1.686c-.653-.443-1.507-.664-2.573-.664-1.067 0-2 .212-2.774.636-.773.425-1.4.968-1.906 1.632-.494.663-.867 1.429-1.134 2.296a9.332 9.332 0 0 0-.386 2.626V86.11h-6.64V59.556m30.813 0h6.307v4.261h.106c.6-1.328 1.614-2.498 3.08-3.513 1.454-1.015 3.174-1.523 5.174-1.523 1.733 0 3.213.305 4.453.914 1.227.609 2.24 1.41 3.04 2.406a9.937 9.937 0 0 1 1.747 3.431 14.77 14.77 0 0 1 .546 3.983V86.11h-6.64V71.395c0-.774-.053-1.585-.16-2.434a6.98 6.98 0 0 0-.72-2.296 4.86 4.86 0 0 0-1.52-1.686c-.653-.443-1.506-.664-2.573-.664-1.08 0-2 .212-2.773.636-.774.425-1.414.968-1.907 1.632a7.206 7.206 0 0 0-1.133 2.296 9.297 9.297 0 0 0-.387 2.626V86.11h-6.64V59.556m49.507 10.623c0-.85-.12-1.66-.36-2.435a5.526 5.526 0 0 0-1.134-2.047c-.506-.589-1.16-1.06-1.96-1.411-.786-.35-1.72-.525-2.8-.525-1.986 0-3.666.6-5.053 1.797-1.387 1.201-2.147 2.739-2.293 4.621h13.6zm6.64 2.986v.886c0 .295-.014.59-.054.883h-20.186c.066.961.32 1.836.746 2.63a6.796 6.796 0 0 0 1.68 2.046 8.416 8.416 0 0 0 2.387 1.357c.88.33 1.8.497 2.76.497 1.667 0 3.067-.306 4.2-.913a7.823 7.823 0 0 0 2.827-2.517l4.426 3.541c-2.613 3.54-6.413 5.31-11.4 5.31-2.066 0-3.96-.324-5.693-.968-1.733-.645-3.24-1.557-4.507-2.738-1.28-1.181-2.266-2.628-2.986-4.343-.72-1.715-1.08-3.66-1.08-5.838 0-2.137.36-4.082 1.08-5.835.72-1.751 1.706-3.244 2.96-4.48 1.253-1.237 2.733-2.194 4.453-2.878 1.707-.681 3.56-1.024 5.56-1.024 1.84 0 3.547.305 5.107.914a10.99 10.99 0 0 1 4.066 2.71c1.147 1.199 2.04 2.693 2.694 4.481.64 1.79.96 3.882.96 6.279m23.186-6.25c-.52-.738-1.293-1.357-2.333-1.854-1.027-.498-2.08-.746-3.147-.746-1.213 0-2.293.248-3.213.746a7.004 7.004 0 0 0-2.293 1.964 8.87 8.87 0 0 0-1.36 2.739 10.963 10.963 0 0 0-.44 3.069c0 1.034.16 2.056.48 3.071a8.41 8.41 0 0 0 1.4 2.739 7.124 7.124 0 0 0 2.36 1.962c.933.499 2.026.748 3.293.748 1.027 0 2.053-.201 3.093-.608 1.027-.406 1.867-.996 2.494-1.77l4.146 4.204c-1.106 1.181-2.52 2.093-4.24 2.738-1.706.644-3.56.968-5.56.968-1.946 0-3.8-.313-5.56-.941-1.746-.625-3.28-1.548-4.586-2.765a13.011 13.011 0 0 1-3.094-4.426c-.76-1.733-1.133-3.708-1.133-5.92 0-2.137.373-4.073 1.133-5.808.747-1.733 1.774-3.208 3.067-4.425a13.79 13.79 0 0 1 4.507-2.823c1.72-.664 3.546-.996 5.506-.996a15 15 0 0 1 5.667 1.107c1.827.739 3.28 1.753 4.347 3.044l-4.534 3.983m6.414-2.047v-5.312h4.64v-7.688h6.533v7.688h6.64v5.312h-6.64v12.336c0 1.18.213 2.157.64 2.932.427.774 1.373 1.161 2.84 1.161.453 0 .933-.045 1.44-.139.52-.09.987-.227 1.387-.413l.226 5.199c-.6.221-1.293.396-2.106.527-.814.129-1.587.193-2.32.193-1.774 0-3.214-.249-4.32-.747-1.107-.497-1.987-1.18-2.627-2.046a7.672 7.672 0 0 1-1.333-2.988 17.338 17.338 0 0 1-.36-3.623V64.868h-4.64M98.071 66.634c0-9.663-7.862-17.525-17.526-17.525h-1.604v6.158h1.604c6.27 0 11.368 5.1 11.368 11.367 0 6.269-5.098 11.369-11.368 11.369h-5.506V40.634h-6.156V84.16h11.662c9.664 0 17.526-7.863 17.526-17.526zM64.967 49.109H53.304c-9.664 0-17.525 7.863-17.525 17.525 0 9.664 7.861 17.526 17.525 17.526h1.604v-6.157h-1.604c-6.269 0-11.369-5.099-11.369-11.369 0-6.267 5.1-11.367 11.369-11.367h5.507v37.367h6.156V49.109zm45.99 17.558c0 24.3-19.698 44-44 44-24.3 0-44-19.7-44-44 0-24.302 19.7-44 44-44 24.302 0 44 19.698 44 44z" fill="#FFF"/></g></svg>