<svg xmlns="http://www.w3.org/2000/svg" style="isolation:isolate" viewBox="0 0 611.67 132"><defs><clipPath id="a"><path d="M0 0h611.67v132H0z"/></clipPath></defs><g clip-path="url(#a)"><path d="M611.675 124c0 4.4-3.6 8-8 8H8c-4.401 0-8-3.6-8-8V8c0-4.4 3.599-8 8-8h595.675c4.4 0 8 3.6 8 8v116z" fill="#FFF"/><path d="M611.675 124c0 4.4-3.6 8-8 8H8c-4.401 0-8-3.6-8-8V8c0-4.4 3.599-8 8-8h595.675c4.4 0 8 3.6 8 8v116z" fill="none" vector-effect="non-scaling-stroke" stroke-width="4" stroke="#D3D4D3" stroke-miterlimit="10"/><text transform="translate(226.665 82.49) scale(1.333)" font-family="Open Sans" font-weight="600" font-size="34" fill="#4358b0">Sign in with Intuit</text><path d="M142.344 82.731h-4.064c-.825 0-1.459-.443-1.523-1.268l-.064-1.588c-2.921 2.35-6.412 3.618-10.094 3.618-7.11 0-10.028-4.505-10.028-11.362V53.355c0-1.08.634-1.462 1.648-1.462h4.445c1.015 0 1.587.315 1.587 1.462v17.442c0 3.492.889 5.903 4.698 5.903 2.411 0 5.459-1.332 7.363-3.044V53.355c0-1.08.572-1.462 1.587-1.462h4.508c1.016 0 1.588.315 1.588 1.462v27.6c0 1.333-.383 1.776-1.651 1.776M39.032 53.16c0-.76.382-1.269 1.143-1.269h5.369c.762 0 1.207.445 1.207 1.269v27.985c0 1.143-.51 1.586-1.589 1.586h-4.479c-1.139 0-1.651-.443-1.651-1.586V53.16zm112.908 0c0-.76.381-1.269 1.141-1.269h5.37c.762 0 1.206.445 1.206 1.269v27.985c0 1.143-.509 1.586-1.588 1.586h-4.48c-1.138 0-1.649-.443-1.649-1.586V53.16zM80.78 82.731h-4.569c-1.144 0-1.524-.572-1.524-1.651V63.813c0-3.49-.951-5.966-4.824-5.966-2.478 0-5.524 1.333-7.491 3.048v20.25c0 1.08-.445 1.586-1.524 1.586h-4.635c-.953 0-1.523-.506-1.523-1.522V53.487c0-1.018.445-1.588 1.587-1.588h4.126c.888 0 1.462.254 1.524 1.205l.063 1.695c2.922-2.348 6.603-3.68 10.286-3.68 7.109 0 10.029 4.444 10.029 11.362V81.08c0 1.079-.381 1.651-1.525 1.651m22.625-39.502a4.656 4.656 0 1 0-9.313 0 4.656 4.656 0 0 0 4.659 4.654 4.653 4.653 0 0 0 4.654-4.654zm6.626 8.662c.761 0 1.205.254 1.205 1.078v4.472c0 .762-.508 1.206-1.269 1.206h-7.358l-.001 22.498c0 1.143-.507 1.586-1.651 1.586H96.54c-1.144 0-1.649-.443-1.649-1.586l-.002-22.498h-7.357c-.763 0-1.271-.444-1.271-1.206v-4.472c0-.824.444-1.078 1.207-1.078h22.563m72.15-8.662a4.656 4.656 0 1 0-9.311-.003 4.656 4.656 0 0 0 9.311.003zm6.626 8.662c.761 0 1.205.254 1.205 1.078v4.472c0 .762-.507 1.206-1.269 1.206h-7.358l-.001 22.498c0 1.143-.507 1.586-1.649 1.586h-4.419c-1.143 0-1.649-.443-1.649-1.586l-.002-22.498h-7.357c-.761 0-1.271-.444-1.271-1.206v-4.472c0-.824.446-1.078 1.207-1.078h22.563z" fill="#4358B0"/><clipPath id="b"><path d="M611.675 124c0 4.4-3.6 8-8 8H8c-4.401 0-8-3.6-8-8V8c0-4.4 3.599-8 8-8h595.675c4.4 0 8 3.6 8 8v116z" fill="#FFF"/></clipPath><g clip-path="url(#b)"><linearGradient id="c" x1="50%" y1="0%" x2="50%" y2="100%"><stop offset="0%" stop-color="#f6f6f6"/><stop offset="97.921%" stop-color="#fff"/><stop offset="100%" stop-color="#fff"/></linearGradient><path d="M681.503 125.995c0 4.4-3.6 8-8 8H77.828c-4.4 0-8-3.6-8-8v-116c0-4.4 3.6-8 8-8h595.675c4.4 0 8 3.6 8 8v116z" fill="url(#c)"/></g><path d="M611.675 124c0 4.4-3.6 8-8 8H8c-4.401 0-8-3.6-8-8V8c0-4.4 3.599-8 8-8h595.675c4.4 0 8 3.6 8 8v116z" fill="none" vector-effect="non-scaling-stroke" stroke-width="4" stroke="#D3D4D3" stroke-miterlimit="10"/><path d="M246.567 57.115c-.606-.787-1.459-1.443-2.562-1.972-1.104-.53-2.214-.794-3.332-.794-.665 0-1.33.084-1.994.25a6.106 6.106 0 0 0-1.814.77c-.544.347-.99.802-1.337 1.36-.348.56-.521 1.232-.521 2.018 0 .725.15 1.345.453 1.858.301.515.717.952 1.247 1.315.528.363 1.17.68 1.926.952.756.272 1.587.544 2.494.816a65.88 65.88 0 0 1 3.196 1.133c1.102.424 2.114.983 3.037 1.678a8.348 8.348 0 0 1 2.267 2.629c.589 1.057.884 2.372.884 3.944 0 1.723-.318 3.225-.952 4.511-.635 1.285-1.482 2.35-2.539 3.196-1.059.846-2.297 1.481-3.717 1.904a15.684 15.684 0 0 1-4.488.634c-2.086 0-4.126-.385-6.12-1.156-1.995-.77-3.627-1.912-4.896-3.422l4.08-3.808c.785 1.088 1.836 1.949 3.15 2.582 1.315.636 2.607.954 3.876.954.664 0 1.346-.084 2.04-.25a5.442 5.442 0 0 0 1.882-.838 4.688 4.688 0 0 0 1.36-1.474c.346-.589.521-1.322.521-2.198 0-.846-.197-1.548-.589-2.108-.394-.559-.922-1.043-1.587-1.451-.665-.408-1.451-.763-2.357-1.065l-2.856-.952a28.19 28.19 0 0 1-2.902-1.088 9.604 9.604 0 0 1-2.606-1.678c-.771-.694-1.398-1.548-1.882-2.561-.484-1.012-.725-2.273-.725-3.785 0-1.632.34-3.038 1.02-4.216a9 9 0 0 1 2.675-2.924c1.102-.771 2.357-1.344 3.762-1.723a16.473 16.473 0 0 1 4.284-.567c1.632 0 3.287.288 4.964.862 1.678.574 3.135 1.436 4.375 2.584l-3.717 4.08m8.341 3.626h5.44v21.76h-5.44v-21.76zm-.771-7.389c0-.876.324-1.639.975-2.289.649-.65 1.473-.975 2.471-.975.997 0 1.836.311 2.516.929.68.62 1.018 1.398 1.018 2.335s-.338 1.716-1.018 2.335c-.68.62-1.519.929-2.516.929-.998 0-1.822-.324-2.471-.975-.651-.649-.975-1.412-.975-2.289zm22.212 11.197c-.997 0-1.881.182-2.65.543a5.732 5.732 0 0 0-1.951 1.468 6.618 6.618 0 0 0-1.224 2.192 8.367 8.367 0 0 0-.431 2.711c0 .873.144 1.717.431 2.529a7.263 7.263 0 0 0 1.224 2.192 5.98 5.98 0 0 0 1.951 1.56c.769.391 1.638.587 2.605.587.997 0 1.896-.188 2.699-.564.8-.378 1.48-.882 2.038-1.515a6.796 6.796 0 0 0 1.294-2.192 7.536 7.536 0 0 0 .452-2.597 7.88 7.88 0 0 0-.452-2.667 6.759 6.759 0 0 0-1.294-2.213 5.99 5.99 0 0 0-2.017-1.491c-.785-.361-1.677-.543-2.675-.543zm11.606-3.808v19.811c0 1.964-.242 3.74-.726 5.327-.482 1.586-1.23 2.93-2.244 4.034-1.012 1.103-2.288 1.956-3.83 2.562-1.54.604-3.371.906-5.484.906-.878 0-1.807-.076-2.79-.226a19.51 19.51 0 0 1-2.901-.68 17.57 17.57 0 0 1-2.743-1.134 13.318 13.318 0 0 1-2.357-1.541l3.128-4.216a11.234 11.234 0 0 0 3.581 2.289c1.331.528 2.675.794 4.035.794 1.299 0 2.396-.191 3.287-.57.892-.378 1.601-.902 2.13-1.569.53-.667.908-1.456 1.134-2.367.226-.909.34-1.909.34-3.002v-1.592h-.091a7.665 7.665 0 0 1-3.015 2.45c-1.224.564-2.592.847-4.101.847-1.633 0-3.113-.303-4.443-.907-1.332-.605-2.456-1.42-3.378-2.448-.923-1.026-1.64-2.229-2.152-3.604a12.363 12.363 0 0 1-.772-4.374c0-1.572.249-3.052.749-4.443.499-1.391 1.208-2.599 2.129-3.627a10.186 10.186 0 0 1 3.355-2.448c1.316-.604 2.789-.906 4.42-.906 1.541 0 2.977.317 4.307.952 1.33.634 2.388 1.617 3.174 2.946h.09v-3.264h5.168m5.396 0h5.168v3.491h.09c.483-1.088 1.322-2.047 2.515-2.879 1.195-.83 2.607-1.246 4.24-1.246 1.419 0 2.636.249 3.648.748 1.013.498 1.844 1.156 2.493 1.972a7.977 7.977 0 0 1 1.43 2.81c.301 1.058.453 2.147.453 3.264v13.6h-5.44V70.443c0-.635-.047-1.3-.137-1.995a5.386 5.386 0 0 0-.588-1.881 3.93 3.93 0 0 0-1.247-1.383c-.529-.363-1.232-.544-2.109-.544-.876 0-1.632.175-2.266.521a4.841 4.841 0 0 0-1.565 1.338 5.918 5.918 0 0 0-.928 1.881 7.462 7.462 0 0 0-.319 2.153v11.968h-5.438v-21.76m35.54 0h5.44v21.76h-5.44v-21.76zm-.771-7.389c0-.876.324-1.639.975-2.289.649-.65 1.473-.975 2.47-.975.998 0 1.836.311 2.516.929.68.62 1.02 1.398 1.02 2.335s-.34 1.716-1.02 2.335c-.68.62-1.518.929-2.516.929-.997 0-1.821-.324-2.47-.975-.651-.649-.975-1.412-.975-2.289zm11.696 7.389h5.168v3.491h.091c.482-1.088 1.321-2.047 2.514-2.879 1.195-.83 2.608-1.246 4.24-1.246 1.42 0 2.636.249 3.648.748 1.014.498 1.844 1.156 2.495 1.972a8.007 8.007 0 0 1 1.428 2.81c.301 1.058.453 2.147.453 3.264v13.6h-5.44V70.443c0-.635-.046-1.3-.136-1.995a5.387 5.387 0 0 0-.589-1.881 3.93 3.93 0 0 0-1.247-1.383c-.529-.363-1.232-.544-2.108-.544-.877 0-1.633.175-2.266.521a4.817 4.817 0 0 0-1.564 1.338 5.9 5.9 0 0 0-.93 1.881 7.494 7.494 0 0 0-.317 2.153v11.968h-5.44v-21.76m32.368 0h5.893l4.534 15.595h.089l4.669-15.595h5.803l4.716 15.595h.089l4.626-15.595h5.666l-7.525 21.76h-5.531l-4.941-15.232h-.092l-4.896 15.232h-5.529l-7.571-21.76zm38.487 0h5.44v21.76h-5.44v-21.76zm-.771-7.389c0-.876.324-1.639.975-2.289.649-.65 1.473-.975 2.47-.975.998 0 1.836.311 2.516.929.68.62 1.02 1.398 1.02 2.335s-.34 1.716-1.02 2.335c-.68.62-1.518.929-2.516.929-.997 0-1.821-.324-2.47-.975-.651-.649-.975-1.412-.975-2.289zm8.568 11.741v-4.352h3.808V54.44h5.349v6.301h5.439v4.352h-5.439v10.11c0 .966.174 1.768.52 2.402.348.635 1.127.952 2.335.952.363 0 .756-.038 1.18-.113.423-.075.8-.188 1.133-.34l.182 4.261a9.013 9.013 0 0 1-1.723.431c-.665.105-1.3.159-1.904.159-1.452 0-2.629-.204-3.537-.612-.906-.408-1.624-.967-2.152-1.678a6.172 6.172 0 0 1-1.088-2.448 14.112 14.112 0 0 1-.295-2.969V65.093h-3.808m29.511-4.986c1.421 0 2.637.249 3.65.748 1.012.498 1.843 1.156 2.492 1.972a7.977 7.977 0 0 1 1.43 2.81c.301 1.058.453 2.147.453 3.264v13.6h-5.441V70.533c0-.634-.044-1.292-.136-1.972a5.668 5.668 0 0 0-.566-1.858 3.73 3.73 0 0 0-1.224-1.383c-.529-.363-1.232-.544-2.108-.544-.877 0-1.633.167-2.268.499a4.71 4.71 0 0 0-1.586 1.337 5.957 5.957 0 0 0-.951 1.881 7.271 7.271 0 0 0-.317 2.131v11.877h-5.44V48.229h5.44v15.55h.09c.211-.454.522-.899.928-1.338.41-.438.886-.83 1.43-1.178a7.423 7.423 0 0 1 1.858-.839 7.771 7.771 0 0 1 2.266-.317m23.71-9.702h5.712v32.096h-5.712V50.405zm11.379 10.336h5.168v3.491h.091c.482-1.088 1.321-2.047 2.514-2.879 1.195-.83 2.608-1.246 4.24-1.246 1.42 0 2.636.249 3.648.748 1.014.498 1.844 1.156 2.495 1.972a8.007 8.007 0 0 1 1.428 2.81c.301 1.058.453 2.147.453 3.264v13.6h-5.44V70.443c0-.635-.046-1.3-.136-1.995a5.387 5.387 0 0 0-.589-1.881 3.93 3.93 0 0 0-1.247-1.383c-.529-.363-1.232-.544-2.108-.544-.877 0-1.633.175-2.266.521a4.817 4.817 0 0 0-1.564 1.338 5.9 5.9 0 0 0-.93 1.881 7.495 7.495 0 0 0-.318 2.153v11.968h-5.439v-21.76m22.121 4.352v-4.352h3.808V54.44h5.35v6.301h5.44v4.352h-5.44v10.11c0 .966.173 1.768.521 2.402.347.635 1.125.952 2.335.952.362 0 .754-.038 1.178-.113.423-.075.8-.188 1.134-.34l.181 4.261a8.975 8.975 0 0 1-1.723.431c-.665.105-1.3.159-1.904.159-1.45 0-2.629-.204-3.536-.612-.906-.408-1.625-.967-2.153-1.678a6.186 6.186 0 0 1-1.088-2.448 14.179 14.179 0 0 1-.295-2.969V65.093h-3.808m37.264 17.408h-5.168v-3.49h-.09c-.484 1.088-1.323 2.048-2.516 2.878-1.195.831-2.607 1.247-4.239 1.247-1.421 0-2.637-.249-3.649-.748s-1.844-1.156-2.494-1.972a7.977 7.977 0 0 1-1.428-2.811 11.833 11.833 0 0 1-.453-3.264v-13.6h5.44V72.8c0 .635.045 1.3.136 1.995.091.696.287 1.322.589 1.881.302.56.718 1.02 1.247 1.383.528.362 1.232.544 2.108.544.847 0 1.595-.174 2.244-.522a4.736 4.736 0 0 0 1.587-1.337 5.93 5.93 0 0 0 .929-1.881c.211-.71.317-1.428.317-2.154V60.741h5.44v21.76m5.486-21.76h5.44v21.76h-5.44v-21.76zm-.771-7.389c0-.876.324-1.639.975-2.289.649-.65 1.473-.975 2.47-.975.998 0 1.836.311 2.516.929.68.62 1.019 1.398 1.019 2.335s-.339 1.716-1.019 2.335c-.68.62-1.518.929-2.516.929-.997 0-1.821-.324-2.47-.975-.651-.649-.975-1.412-.975-2.289zm8.568 11.741v-4.352h3.808V54.44h5.349v6.301h5.44v4.352h-5.44v10.11c0 .966.174 1.768.522 2.402.346.635 1.125.952 2.334.952.363 0 .755-.038 1.179-.113.423-.075.8-.188 1.133-.34l.182 4.261a9.013 9.013 0 0 1-1.723.431c-.665.105-1.3.159-1.904.159-1.451 0-2.629-.204-3.536-.612-.907-.408-1.625-.967-2.153-1.678a6.172 6.172 0 0 1-1.088-2.448 14.112 14.112 0 0 1-.295-2.969V65.093h-3.808M142.344 82.731h-4.064c-.825 0-1.459-.443-1.523-1.268l-.064-1.588c-2.921 2.35-6.412 3.618-10.094 3.618-7.11 0-10.028-4.505-10.028-11.362V53.355c0-1.08.634-1.462 1.648-1.462h4.445c1.015 0 1.587.315 1.587 1.462v17.442c0 3.492.889 5.903 4.698 5.903 2.411 0 5.459-1.332 7.363-3.044V53.355c0-1.08.572-1.462 1.587-1.462h4.508c1.016 0 1.588.315 1.588 1.462v27.6c0 1.333-.383 1.776-1.651 1.776M39.032 53.16c0-.76.382-1.269 1.143-1.269h5.369c.762 0 1.207.445 1.207 1.269v27.985c0 1.143-.51 1.586-1.589 1.586h-4.479c-1.139 0-1.651-.443-1.651-1.586V53.16zm112.908 0c0-.76.381-1.269 1.141-1.269h5.37c.762 0 1.206.445 1.206 1.269v27.985c0 1.143-.509 1.586-1.588 1.586h-4.48c-1.138 0-1.649-.443-1.649-1.586V53.16zM80.78 82.731h-4.569c-1.144 0-1.524-.572-1.524-1.651V63.813c0-3.49-.951-5.966-4.824-5.966-2.478 0-5.524 1.333-7.491 3.048v20.25c0 1.08-.445 1.586-1.524 1.586h-4.635c-.953 0-1.523-.506-1.523-1.522V53.487c0-1.018.445-1.588 1.587-1.588h4.126c.888 0 1.462.254 1.524 1.205l.063 1.695c2.922-2.348 6.603-3.68 10.286-3.68 7.109 0 10.029 4.444 10.029 11.362V81.08c0 1.079-.381 1.651-1.525 1.651m22.625-39.502a4.656 4.656 0 1 0-9.313 0 4.656 4.656 0 0 0 4.659 4.654 4.653 4.653 0 0 0 4.654-4.654zm6.626 8.662c.761 0 1.205.254 1.205 1.078v4.472c0 .762-.508 1.206-1.269 1.206h-7.358l-.001 22.498c0 1.143-.507 1.586-1.651 1.586H96.54c-1.144 0-1.649-.443-1.649-1.586l-.002-22.498h-7.357c-.763 0-1.271-.444-1.271-1.206v-4.472c0-.824.444-1.078 1.207-1.078h22.563m72.15-8.662a4.656 4.656 0 1 0-9.311-.003 4.656 4.656 0 0 0 9.311.003zm6.626 8.662c.761 0 1.205.254 1.205 1.078v4.472c0 .762-.507 1.206-1.269 1.206h-7.358l-.001 22.498c0 1.143-.507 1.586-1.649 1.586h-4.419c-1.143 0-1.649-.443-1.649-1.586l-.002-22.498h-7.357c-.761 0-1.271-.444-1.271-1.206v-4.472c0-.824.446-1.078 1.207-1.078h22.563z" fill="#4358B0"/></g></svg>