<svg xmlns="http://www.w3.org/2000/svg" style="isolation:isolate" viewBox="0 0 408.49 132"><defs><clipPath id="a"><path d="M0 0h408.49v132H0z"/></clipPath></defs><g clip-path="url(#a)"><path d="M408.489 124c0 4.4-3.586 8-8 8H8c-4.4 0-8-3.6-8-8V8c0-4.4 3.6-8 8-8h392.489c4.414 0 8 3.6 8 8v116z" fill="#3650A8"/><path d="M408.489 124c0 4.4-3.586 8-8 8H8c-4.4 0-8-3.6-8-8V8c0-4.4 3.6-8 8-8h392.489c4.414 0 8 3.6 8 8v116z" fill="none" vector-effect="non-scaling-stroke" stroke-width="4" stroke="#3650A8" stroke-miterlimit="10"/><text transform="translate(232 80.078) scale(1.333)" font-family="Open Sans" font-weight="600" font-size="34" fill="#fff">Sign in</text><path d="M145.631 82.02h-4.066c-.824 0-1.456-.443-1.52-1.269l-.064-1.588c-2.922 2.352-6.413 3.62-10.094 3.62-7.111 0-10.03-4.506-10.03-11.364V52.643c0-1.079.635-1.46 1.647-1.46h4.447c1.014 0 1.586.314 1.586 1.46v17.442c0 3.494.89 5.904 4.699 5.904 2.412 0 5.459-1.332 7.364-3.044V52.643c0-1.079.571-1.46 1.585-1.46h4.508c1.018 0 1.588.314 1.588 1.46v27.601c0 1.333-.382 1.776-1.65 1.776M42.32 52.449c0-.76.381-1.269 1.141-1.269h5.37c.762 0 1.206.445 1.206 1.269v27.984c0 1.144-.509 1.587-1.588 1.587h-4.478c-1.14 0-1.651-.443-1.651-1.587V52.449zm112.905 0c0-.76.383-1.269 1.143-1.269h5.369c.763 0 1.207.445 1.207 1.269v27.984c0 1.144-.509 1.587-1.588 1.587h-4.479c-1.14 0-1.652-.443-1.652-1.587V52.449zM84.067 82.02h-4.57c-1.144 0-1.524-.571-1.524-1.651V63.103c0-3.491-.949-5.967-4.825-5.967-2.476 0-5.521 1.333-7.489 3.048v20.249c0 1.082-.446 1.587-1.523 1.587H59.5c-.953 0-1.524-.505-1.524-1.523V52.775c0-1.016.445-1.587 1.588-1.587h4.125c.89 0 1.463.253 1.524 1.205l.063 1.695c2.923-2.348 6.604-3.679 10.287-3.679 7.109 0 10.029 4.443 10.029 11.362v18.598c0 1.08-.38 1.651-1.525 1.651m22.625-39.501a4.655 4.655 0 1 0-9.312 0 4.656 4.656 0 0 0 9.312 0zm6.625 8.661c.762 0 1.206.253 1.206 1.079v4.472c0 .761-.508 1.205-1.27 1.205h-7.358v22.497c0 1.144-.508 1.587-1.65 1.587h-4.418c-1.143 0-1.651-.443-1.651-1.587V57.936h-7.357c-.763 0-1.27-.444-1.27-1.205v-4.472c0-.826.444-1.079 1.206-1.079h22.562zm72.152-8.661a4.656 4.656 0 1 0-9.313 0 4.656 4.656 0 0 0 4.657 4.654 4.655 4.655 0 0 0 4.656-4.654zm6.624 8.661c.762 0 1.207.253 1.207 1.079v4.472c0 .761-.509 1.205-1.271 1.205h-7.357l-.001 22.497c0 1.144-.506 1.587-1.65 1.587h-4.417c-1.144 0-1.651-.443-1.651-1.587l-.001-22.497h-7.357c-.763 0-1.27-.444-1.27-1.205v-4.472c0-.826.444-1.079 1.206-1.079h22.562" fill="#FFF"/><path d="M408.489 124c0 4.4-3.586 8-8 8H8c-4.4 0-8-3.6-8-8V8c0-4.4 3.6-8 8-8h392.489c4.414 0 8 3.6 8 8v116z" fill="#4358B0"/><path d="M408.489 124c0 4.4-3.586 8-8 8H8c-4.4 0-8-3.6-8-8V8c0-4.4 3.6-8 8-8h392.489c4.414 0 8 3.6 8 8v116z" fill="none" vector-effect="non-scaling-stroke" stroke-width="4" stroke="#4358B0" stroke-miterlimit="10"/><path d="M251.9 54.703c-.604-.786-1.457-1.443-2.561-1.971-1.103-.529-2.214-.793-3.332-.793-.664 0-1.33.084-1.995.249a6.092 6.092 0 0 0-1.812.771c-.544.346-.991.8-1.337 1.358-.348.56-.523 1.232-.523 2.019 0 .725.152 1.345.455 1.859.301.513.717.95 1.246 1.314.528.362 1.171.68 1.927.952.755.272 1.585.544 2.493.816 1.027.332 2.092.71 3.196 1.134 1.103.422 2.115.982 3.038 1.676a8.338 8.338 0 0 1 2.266 2.63c.59 1.058.883 2.372.883 3.944 0 1.723-.316 3.226-.952 4.511-.633 1.285-1.48 2.351-2.537 3.195-1.059.846-2.299 1.482-3.718 1.905a15.65 15.65 0 0 1-4.488.635 16.86 16.86 0 0 1-6.12-1.156c-1.994-.772-3.628-1.912-4.896-3.423l4.08-3.808c.786 1.088 1.836 1.949 3.151 2.583 1.313.636 2.607.953 3.876.953.664 0 1.344-.084 2.039-.251a5.414 5.414 0 0 0 1.882-.837 4.695 4.695 0 0 0 1.36-1.473c.347-.59.522-1.323.522-2.199 0-.847-.198-1.548-.591-2.108-.393-.559-.921-1.044-1.585-1.451-.666-.408-1.451-.764-2.359-1.065-.905-.303-1.857-.62-2.855-.952a28.409 28.409 0 0 1-2.901-1.088 9.662 9.662 0 0 1-2.607-1.677 8.102 8.102 0 0 1-1.881-2.562c-.485-1.013-.725-2.274-.725-3.785 0-1.633.34-3.037 1.018-4.216a9.033 9.033 0 0 1 2.675-2.924c1.103-.772 2.359-1.344 3.764-1.723a16.41 16.41 0 0 1 4.283-.566c1.633 0 3.286.288 4.965.86 1.677.576 3.135 1.436 4.373 2.585l-3.717 4.079m8.341 3.628h5.44v21.758h-5.44V58.331zm-.77-7.39c0-.876.324-1.638.974-2.29.651-.648 1.474-.974 2.471-.974.997 0 1.836.31 2.517.93.679.62 1.019 1.397 1.019 2.334 0 .936-.34 1.715-1.019 2.335-.681.62-1.52.928-2.517.928-.997 0-1.82-.324-2.471-.973-.65-.65-.974-1.414-.974-2.29zm22.218 11.198c-1 0-1.88.18-2.653.542a5.77 5.77 0 0 0-1.96 1.468 6.606 6.606 0 0 0-1.213 2.192 8.18 8.18 0 0 0-.44 2.711c0 .873.146 1.716.44 2.531.28.812.693 1.544 1.213 2.19a6.056 6.056 0 0 0 1.96 1.559c.773.392 1.64.587 2.6.587 1 0 1.893-.187 2.707-.563.8-.379 1.48-.883 2.026-1.515.56-.633 1-1.364 1.294-2.192a7.424 7.424 0 0 0 .453-2.597c0-.933-.147-1.823-.453-2.667a6.598 6.598 0 0 0-1.294-2.213 5.833 5.833 0 0 0-2.013-1.491c-.787-.362-1.68-.542-2.667-.542zm11.6-3.808V78.14c0 1.965-.24 3.74-.72 5.328-.493 1.587-1.24 2.931-2.253 4.035-1.013 1.102-2.28 1.956-3.827 2.561-1.546.604-3.373.907-5.48.907-.88 0-1.813-.076-2.8-.227a19.525 19.525 0 0 1-2.893-.68c-.96-.304-1.867-.68-2.747-1.135a13.545 13.545 0 0 1-2.36-1.54l3.134-4.216a11.172 11.172 0 0 0 3.586 2.29c1.32.528 2.667.792 4.027.792 1.307 0 2.4-.19 3.293-.568.894-.38 1.6-.903 2.12-1.57a6.11 6.11 0 0 0 1.147-2.366c.227-.91.333-1.911.333-3.003v-1.593h-.093a7.642 7.642 0 0 1-3.013 2.45c-1.227.566-2.587.848-4.107.848-1.627 0-3.107-.304-4.44-.908-1.333-.604-2.453-1.418-3.373-2.448-.92-1.025-1.64-2.228-2.16-3.602a12.547 12.547 0 0 1-.76-4.375c0-1.572.24-3.052.746-4.443.494-1.39 1.2-2.598 2.12-3.626a10.26 10.26 0 0 1 3.36-2.45c1.32-.604 2.787-.906 4.427-.906a9.92 9.92 0 0 1 4.307.952c1.32.636 2.386 1.617 3.173 2.946h.08v-3.262h5.173m5.4 0h5.16v3.489h.094c.48-1.087 1.32-2.047 2.52-2.877 1.186-.832 2.6-1.248 4.24-1.248 1.413 0 2.626.25 3.64.749 1.013.499 1.853 1.155 2.493 1.972a7.79 7.79 0 0 1 1.427 2.811 11.67 11.67 0 0 1 .453 3.262v13.6h-5.44V68.031c0-.634-.04-1.299-.133-1.995-.094-.693-.28-1.321-.587-1.881a3.935 3.935 0 0 0-1.253-1.382c-.52-.362-1.227-.544-2.107-.544-.867 0-1.627.175-2.267.522a4.931 4.931 0 0 0-1.56 1.336 6.15 6.15 0 0 0-.933 1.882 7.923 7.923 0 0 0-.307 2.154v11.966h-5.44V58.331m35.534 0h5.44v21.758h-5.44V58.331zm-.774-7.39c0-.876.334-1.638.974-2.29.653-.648 1.48-.974 2.48-.974s1.826.31 2.506.93c.68.62 1.027 1.397 1.027 2.334 0 .936-.347 1.715-1.027 2.335-.68.62-1.506.928-2.506.928-1 0-1.827-.324-2.48-.973-.64-.65-.974-1.414-.974-2.29zm11.707 7.39h5.16v3.489h.093c.48-1.087 1.32-2.047 2.52-2.877 1.187-.832 2.6-1.248 4.24-1.248 1.414 0 2.627.25 3.64.749 1.014.499 1.84 1.155 2.494 1.972a7.772 7.772 0 0 1 1.426 2.811c.307 1.057.454 2.145.454 3.262v13.6h-5.44V68.031c0-.634-.04-1.299-.134-1.995-.093-.693-.28-1.321-.586-1.881a3.928 3.928 0 0 0-1.254-1.382c-.52-.362-1.226-.544-2.106-.544-.867 0-1.627.175-2.267.522a4.91 4.91 0 0 0-1.56 1.336 5.87 5.87 0 0 0-.933 1.882 7.43 7.43 0 0 0-.32 2.154v11.966h-5.427V58.331M145.631 82.02h-4.066c-.824 0-1.456-.443-1.52-1.269l-.064-1.588c-2.922 2.352-6.413 3.62-10.094 3.62-7.111 0-10.03-4.506-10.03-11.364V52.643c0-1.079.635-1.46 1.647-1.46h4.447c1.014 0 1.586.314 1.586 1.46v17.442c0 3.494.89 5.904 4.699 5.904 2.412 0 5.459-1.332 7.364-3.044V52.643c0-1.079.571-1.46 1.585-1.46h4.508c1.018 0 1.588.314 1.588 1.46v27.601c0 1.333-.382 1.776-1.65 1.776M42.32 52.449c0-.76.381-1.269 1.141-1.269h5.37c.762 0 1.206.445 1.206 1.269v27.984c0 1.144-.509 1.587-1.588 1.587h-4.478c-1.14 0-1.651-.443-1.651-1.587V52.449zm112.905 0c0-.76.383-1.269 1.143-1.269h5.369c.763 0 1.207.445 1.207 1.269v27.984c0 1.144-.509 1.587-1.588 1.587h-4.479c-1.14 0-1.652-.443-1.652-1.587V52.449zM84.067 82.02h-4.57c-1.144 0-1.524-.571-1.524-1.651V63.103c0-3.491-.949-5.967-4.825-5.967-2.476 0-5.521 1.333-7.489 3.048v20.249c0 1.082-.446 1.587-1.523 1.587H59.5c-.953 0-1.524-.505-1.524-1.523V52.775c0-1.016.445-1.587 1.588-1.587h4.125c.89 0 1.463.253 1.524 1.205l.063 1.695c2.923-2.348 6.604-3.679 10.287-3.679 7.109 0 10.029 4.443 10.029 11.362v18.598c0 1.08-.38 1.651-1.525 1.651m22.625-39.501a4.655 4.655 0 1 0-9.312 0 4.656 4.656 0 0 0 9.312 0zm6.625 8.661c.762 0 1.206.253 1.206 1.079v4.472c0 .761-.508 1.205-1.27 1.205h-7.358v22.497c0 1.144-.508 1.587-1.65 1.587h-4.418c-1.143 0-1.651-.443-1.651-1.587V57.936h-7.357c-.763 0-1.27-.444-1.27-1.205v-4.472c0-.826.444-1.079 1.206-1.079h22.562zm72.152-8.661a4.656 4.656 0 1 0-9.313 0 4.656 4.656 0 0 0 4.657 4.654 4.655 4.655 0 0 0 4.656-4.654zm6.624 8.661c.762 0 1.207.253 1.207 1.079v4.472c0 .761-.509 1.205-1.271 1.205h-7.357l-.001 22.497c0 1.144-.506 1.587-1.65 1.587h-4.417c-1.144 0-1.651-.443-1.651-1.587l-.001-22.497h-7.357c-.763 0-1.27-.444-1.27-1.205v-4.472c0-.826.444-1.079 1.206-1.079h22.562" fill="#FFF"/></g></svg>