<svg xmlns="http://www.w3.org/2000/svg" style="isolation:isolate" viewBox="0 0 132 132"><defs><clipPath id="a"><path d="M0 0h132v132H0z"/></clipPath></defs><g clip-path="url(#a)"><path d="M132 124c0 4.4-3.6 8-8 8H8c-4.4 0-8-3.6-8-8V8c0-4.4 3.6-8 8-8h116c4.4 0 8 3.6 8 8v116z" fill="#3650A8"/><path d="M132 124c0 4.4-3.6 8-8 8H8c-4.4 0-8-3.6-8-8V8c0-4.4 3.6-8 8-8h116c4.4 0 8 3.6 8 8v116z" fill="none" vector-effect="non-scaling-stroke" stroke-width="4" stroke="#3650A8" stroke-miterlimit="10"/><path d="M89.04 108.74h-2.88c-.573 0-1.027-.315-1.067-.897l-.053-1.122c-2.053 1.66-4.52 2.556-7.133 2.556-5.014 0-7.08-3.182-7.08-8.026V87.984c0-.763.453-1.032 1.16-1.032h3.146c.72 0 1.12.223 1.12 1.032v12.323c0 2.468.627 4.17 3.32 4.17 1.707 0 3.854-.94 5.2-2.15V87.984c0-.763.4-1.032 1.12-1.032h3.187c.72 0 1.12.223 1.12 1.032v19.5c0 .941-.267 1.256-1.16 1.256M16.053 87.848c0-.539.267-.897.8-.897h3.8c.534 0 .854.314.854.897v19.771c0 .806-.36 1.121-1.134 1.121h-3.16c-.8 0-1.16-.315-1.16-1.121V87.848M95.813 87.848c0-.539.267-.897.814-.897h3.786c.547 0 .854.314.854.897v19.771c0 .806-.36 1.121-1.12 1.121h-3.16c-.814 0-1.174-.315-1.174-1.121V87.848zM45.547 108.74h-3.24c-.8 0-1.067-.404-1.067-1.167v-12.2c0-2.465-.68-4.216-3.413-4.216-1.747 0-3.894.943-5.294 2.154v14.308c0 .762-.306 1.121-1.08 1.121h-3.266c-.68 0-1.08-.359-1.08-1.076V88.079c0-.719.32-1.123 1.12-1.123h2.92c.626 0 1.026.18 1.08.852l.04 1.197c2.066-1.658 4.666-2.6 7.266-2.6 5.027 0 7.08 3.139 7.08 8.027v13.141c0 .763-.266 1.167-1.066 1.167M61.52 80.832a3.286 3.286 0 0 0-3.28-3.292 3.297 3.297 0 0 0-3.293 3.292 3.294 3.294 0 0 0 3.293 3.288 3.283 3.283 0 0 0 3.28-3.288zM66.213 86.951c.534 0 .84.18.84.762v3.159c0 .539-.36.852-.893.852h-5.2v15.895c0 .806-.36 1.121-1.16 1.121h-3.12c-.813 0-1.173-.315-1.173-1.121V91.724h-5.2c-.534 0-.894-.313-.894-.852v-3.159c0-.582.32-.762.854-.762h15.946M117.187 80.832a3.297 3.297 0 0 0-3.294-3.292 3.297 3.297 0 0 0-3.293 3.292 3.294 3.294 0 0 0 6.587 0zM121.867 86.951c.533 0 .853.18.853.762v3.159c0 .539-.36.852-.907.852h-5.2v15.895c0 .806-.346 1.121-1.16 1.121h-3.12c-.813 0-1.173-.315-1.173-1.121V91.724h-5.2c-.533 0-.893-.313-.893-.852v-3.159c0-.582.32-.762.853-.762h15.947" fill="#FFF"/><path d="M132 124c0 4.4-3.6 8-8 8H8c-4.4 0-8-3.6-8-8V8c0-4.4 3.6-8 8-8h116c4.4 0 8 3.6 8 8v116z" fill="#4358B0"/><path d="M132 124c0 4.4-3.6 8-8 8H8c-4.4 0-8-3.6-8-8V8c0-4.4 3.6-8 8-8h116c4.4 0 8 3.6 8 8v116z" fill="none" vector-effect="non-scaling-stroke" stroke-width="4" stroke="#4358B0" stroke-miterlimit="10"/><path d="M89.04 108.74h-2.88c-.573 0-1.027-.315-1.067-.897l-.053-1.122c-2.053 1.66-4.52 2.556-7.133 2.556-5.014 0-7.08-3.182-7.08-8.026V87.984c0-.763.453-1.032 1.16-1.032h3.146c.72 0 1.12.223 1.12 1.032v12.323c0 2.468.627 4.17 3.32 4.17 1.707 0 3.854-.94 5.2-2.15V87.984c0-.763.4-1.032 1.12-1.032h3.187c.72 0 1.12.223 1.12 1.032v19.5c0 .941-.267 1.256-1.16 1.256M16.053 87.848c0-.539.267-.897.8-.897h3.8c.534 0 .854.314.854.897v19.771c0 .806-.36 1.121-1.134 1.121h-3.16c-.8 0-1.16-.315-1.16-1.121V87.848M95.813 87.848c0-.539.267-.897.814-.897h3.786c.547 0 .854.314.854.897v19.771c0 .806-.36 1.121-1.12 1.121h-3.16c-.814 0-1.174-.315-1.174-1.121V87.848zM45.547 108.74h-3.24c-.8 0-1.067-.404-1.067-1.167v-12.2c0-2.465-.68-4.216-3.413-4.216-1.747 0-3.894.943-5.294 2.154v14.308c0 .762-.306 1.121-1.08 1.121h-3.266c-.68 0-1.08-.359-1.08-1.076V88.079c0-.719.32-1.123 1.12-1.123h2.92c.626 0 1.026.18 1.08.852l.04 1.197c2.066-1.658 4.666-2.6 7.266-2.6 5.027 0 7.08 3.139 7.08 8.027v13.141c0 .763-.266 1.167-1.066 1.167M61.52 80.832a3.286 3.286 0 0 0-3.28-3.292 3.297 3.297 0 0 0-3.293 3.292 3.294 3.294 0 0 0 3.293 3.288 3.283 3.283 0 0 0 3.28-3.288zM66.213 86.951c.534 0 .84.18.84.762v3.159c0 .539-.36.852-.893.852h-5.2v15.895c0 .806-.36 1.121-1.16 1.121h-3.12c-.813 0-1.173-.315-1.173-1.121V91.724h-5.2c-.534 0-.894-.313-.894-.852v-3.159c0-.582.32-.762.854-.762h15.946M117.187 80.832a3.297 3.297 0 0 0-3.294-3.292 3.297 3.297 0 0 0-3.293 3.292 3.294 3.294 0 0 0 6.587 0zM121.867 86.951c.533 0 .853.18.853.762v3.159c0 .539-.36.852-.907.852h-5.2v15.895c0 .806-.346 1.121-1.16 1.121h-3.12c-.813 0-1.173-.315-1.173-1.121V91.724h-5.2c-.533 0-.893-.313-.893-.852v-3.159c0-.582.32-.762.853-.762h15.947" fill="#FFF"/></g></svg>