<svg xmlns="http://www.w3.org/2000/svg" style="isolation:isolate" viewBox="0 0 614.67 132"><defs><clipPath id="a"><path d="M0 0h614.67v132H0z"/></clipPath></defs><g clip-path="url(#a)"><path d="M611.675 124c0 4.4-3.6 8-8 8H8c-4.401 0-8-3.6-8-8V8c0-4.4 3.599-8 8-8h595.675c4.4 0 8 3.6 8 8v116z" fill="#3650A8"/><path d="M611.675 124c0 4.4-3.6 8-8 8H8c-4.401 0-8-3.6-8-8V8c0-4.4 3.599-8 8-8h595.675c4.4 0 8 3.6 8 8v116z" fill="none" vector-effect="non-scaling-stroke" stroke-width="4" stroke="#3650A8" stroke-miterlimit="10"/><text transform="translate(226.665 80.078) scale(1.333)" font-family="Open Sans" font-weight="600" font-size="34" fill="#fff">Sign in with Intuit</text><path d="M145.631 82.02h-4.066c-.825 0-1.457-.443-1.521-1.269l-.064-1.588c-2.921 2.352-6.413 3.62-10.095 3.62-7.109 0-10.029-4.506-10.029-11.364V52.643c0-1.079.635-1.46 1.649-1.46h4.446c1.014 0 1.585.314 1.585 1.46v17.442c0 3.494.891 5.904 4.7 5.904 2.411 0 5.459-1.332 7.363-3.044V52.643c0-1.079.572-1.46 1.586-1.46h4.508c1.016 0 1.588.314 1.588 1.46v27.601c0 1.333-.382 1.776-1.65 1.776M42.318 52.449c0-.76.382-1.269 1.143-1.269h5.369c.762 0 1.207.445 1.207 1.269l-.001 27.984c0 1.144-.508 1.587-1.588 1.587h-4.479c-1.139 0-1.651-.443-1.651-1.587V52.449m112.907 0c0-.76.382-1.269 1.143-1.269h5.369c.763 0 1.207.445 1.207 1.269v27.984c0 1.144-.509 1.587-1.588 1.587h-4.48c-1.139 0-1.651-.443-1.651-1.587V52.449M84.065 82.02h-4.569c-1.143 0-1.524-.571-1.524-1.651V63.103c0-3.491-.949-5.967-4.824-5.967-2.476 0-5.523 1.333-7.491 3.048v20.249c0 1.082-.445 1.587-1.522 1.587h-4.636c-.953 0-1.524-.505-1.524-1.523V52.775c0-1.016.446-1.587 1.588-1.587h4.126c.888 0 1.462.253 1.523 1.205l.064 1.695c2.923-2.348 6.603-3.679 10.285-3.679 7.111 0 10.03 4.443 10.03 11.362v18.598c0 1.08-.38 1.651-1.526 1.651zm22.627-39.501a4.656 4.656 0 1 0-9.313 0 4.656 4.656 0 0 0 4.657 4.654 4.655 4.655 0 0 0 4.656-4.654zm6.624 8.661c.761 0 1.207.253 1.207 1.079v4.472c0 .761-.508 1.205-1.271 1.205h-7.357v22.497c0 1.144-.507 1.587-1.651 1.587h-4.419c-1.142 0-1.649-.443-1.649-1.587l-.001-22.497h-7.358c-.761 0-1.269-.444-1.269-1.205v-4.472c0-.826.444-1.079 1.205-1.079h22.563m72.152-8.661a4.656 4.656 0 1 0-9.313 0 4.656 4.656 0 0 0 9.313 0zm6.624 8.661c.763 0 1.207.253 1.207 1.079v4.472c0 .761-.508 1.205-1.27 1.205h-7.357l-.001 22.497c0 1.144-.507 1.587-1.651 1.587h-4.417c-1.144 0-1.651-.443-1.651-1.587V57.936h-7.357c-.763 0-1.271-.444-1.271-1.205v-4.472c0-.826.445-1.079 1.207-1.079h22.561" fill="#FFF"/><path d="M611.675 124c0 4.4-3.6 8-8 8H8c-4.401 0-8-3.6-8-8V8c0-4.4 3.599-8 8-8h595.675c4.4 0 8 3.6 8 8v116z" fill="#4358B0"/><path d="M611.675 124c0 4.4-3.6 8-8 8H8c-4.401 0-8-3.6-8-8V8c0-4.4 3.599-8 8-8h595.675c4.4 0 8 3.6 8 8v116z" fill="none" vector-effect="non-scaling-stroke" stroke-width="4" stroke="#4358B0" stroke-miterlimit="10"/><path d="M246.567 54.703c-.606-.786-1.459-1.443-2.562-1.971-1.104-.529-2.214-.793-3.332-.793-.665 0-1.33.084-1.994.249a6.082 6.082 0 0 0-1.814.771c-.544.346-.99.8-1.337 1.358-.348.56-.521 1.232-.521 2.019 0 .725.15 1.345.453 1.859.301.513.717.95 1.247 1.314.528.362 1.17.68 1.926.952.756.272 1.587.544 2.494.816 1.026.332 2.093.71 3.196 1.134 1.102.422 2.114.982 3.037 1.676a8.341 8.341 0 0 1 2.267 2.63c.589 1.058.884 2.372.884 3.944 0 1.723-.318 3.226-.952 4.511-.635 1.285-1.482 2.351-2.539 3.195-1.059.846-2.297 1.482-3.717 1.905a15.65 15.65 0 0 1-4.488.635c-2.086 0-4.126-.386-6.12-1.156-1.995-.772-3.627-1.912-4.896-3.423l4.08-3.808c.785 1.088 1.836 1.949 3.15 2.583 1.315.636 2.607.953 3.876.953.664 0 1.346-.084 2.04-.251a5.422 5.422 0 0 0 1.882-.837 4.695 4.695 0 0 0 1.36-1.473c.346-.59.521-1.323.521-2.199 0-.847-.197-1.548-.589-2.108-.394-.559-.922-1.044-1.587-1.451-.665-.408-1.451-.764-2.357-1.065l-2.856-.952a28.425 28.425 0 0 1-2.902-1.088 9.672 9.672 0 0 1-2.606-1.677c-.771-.696-1.398-1.548-1.882-2.562-.484-1.013-.725-2.274-.725-3.785 0-1.633.34-3.037 1.02-4.216a9 9 0 0 1 2.675-2.924c1.102-.772 2.357-1.344 3.762-1.723a16.43 16.43 0 0 1 4.284-.566c1.632 0 3.287.288 4.964.86 1.678.576 3.135 1.436 4.375 2.585l-3.717 4.079m8.341 3.628h5.44v21.758h-5.44V58.331zm-.771-7.39c0-.876.324-1.638.975-2.29.649-.648 1.473-.974 2.471-.974.997 0 1.836.31 2.516.93.68.62 1.018 1.397 1.018 2.334 0 .936-.338 1.715-1.018 2.335-.68.62-1.519.928-2.516.928-.998 0-1.822-.324-2.471-.973-.651-.65-.975-1.414-.975-2.29zm22.212 11.198c-.997 0-1.881.18-2.65.542-.772.36-1.422.85-1.951 1.468a6.627 6.627 0 0 0-1.224 2.192 8.363 8.363 0 0 0-.431 2.711c0 .873.144 1.716.431 2.531a7.277 7.277 0 0 0 1.224 2.19 5.99 5.99 0 0 0 1.951 1.559c.769.392 1.638.587 2.605.587.997 0 1.896-.187 2.699-.563.8-.379 1.48-.883 2.038-1.515a6.817 6.817 0 0 0 1.294-2.192 7.54 7.54 0 0 0 .452-2.597c0-.933-.151-1.823-.452-2.667a6.77 6.77 0 0 0-1.294-2.213 5.963 5.963 0 0 0-2.017-1.491c-.785-.362-1.677-.542-2.675-.542zm11.606-3.808V78.14c0 1.965-.242 3.74-.726 5.328-.482 1.587-1.23 2.931-2.244 4.035-1.012 1.102-2.288 1.956-3.83 2.561-1.54.604-3.371.907-5.484.907a19.51 19.51 0 0 1-5.691-.907 17.575 17.575 0 0 1-2.743-1.135 13.26 13.26 0 0 1-2.357-1.54l3.128-4.216a11.237 11.237 0 0 0 3.581 2.29c1.331.528 2.675.792 4.035.792 1.299 0 2.396-.19 3.287-.568.892-.38 1.601-.903 2.13-1.57.53-.668.908-1.457 1.134-2.366.226-.91.34-1.911.34-3.003v-1.593h-.091a7.648 7.648 0 0 1-3.015 2.45c-1.224.566-2.592.848-4.101.848-1.633 0-3.113-.304-4.443-.908-1.332-.604-2.456-1.418-3.378-2.448-.923-1.025-1.64-2.228-2.152-3.602a12.372 12.372 0 0 1-.772-4.375c0-1.572.249-3.052.749-4.443.499-1.39 1.208-2.598 2.129-3.626a10.178 10.178 0 0 1 3.355-2.45c1.316-.604 2.789-.906 4.42-.906 1.541 0 2.977.318 4.307.952 1.33.636 2.388 1.617 3.174 2.946h.09v-3.262h5.168m5.396 0h5.168v3.489h.09c.483-1.087 1.322-2.047 2.515-2.877 1.195-.832 2.607-1.248 4.24-1.248 1.419 0 2.636.25 3.648.749 1.013.499 1.844 1.155 2.493 1.972a7.973 7.973 0 0 1 1.43 2.811c.301 1.057.453 2.145.453 3.262v13.6h-5.44V68.031c0-.634-.047-1.299-.137-1.995a5.412 5.412 0 0 0-.588-1.881 3.927 3.927 0 0 0-1.247-1.382c-.529-.362-1.232-.544-2.109-.544-.876 0-1.632.175-2.266.522a4.812 4.812 0 0 0-1.565 1.336 5.944 5.944 0 0 0-.928 1.882 7.463 7.463 0 0 0-.319 2.154v11.966h-5.438V58.331m35.54 0h5.44v21.758h-5.44V58.331zm-.771-7.39c0-.876.324-1.638.975-2.29.649-.648 1.473-.974 2.47-.974.998 0 1.836.31 2.516.93.68.62 1.02 1.397 1.02 2.334 0 .936-.34 1.715-1.02 2.335-.68.62-1.518.928-2.516.928-.997 0-1.821-.324-2.47-.973-.651-.65-.975-1.414-.975-2.29zm11.696 7.39h5.168v3.489h.091c.482-1.087 1.321-2.047 2.514-2.877 1.195-.832 2.608-1.248 4.24-1.248 1.42 0 2.636.25 3.648.749 1.014.499 1.844 1.155 2.495 1.972a8.003 8.003 0 0 1 1.428 2.811c.301 1.057.453 2.145.453 3.262v13.6h-5.44V68.031c0-.634-.046-1.299-.136-1.995a5.413 5.413 0 0 0-.589-1.881 3.927 3.927 0 0 0-1.247-1.382c-.529-.362-1.232-.544-2.108-.544-.877 0-1.633.175-2.266.522a4.788 4.788 0 0 0-1.564 1.336 5.927 5.927 0 0 0-.93 1.882 7.495 7.495 0 0 0-.317 2.154v11.966h-5.44V58.331m32.368 0h5.893l4.534 15.593h.089l4.669-15.593h5.803l4.716 15.593h.089l4.626-15.593h5.666l-7.525 21.758h-5.531l-4.941-15.23h-.092l-4.896 15.23h-5.529l-7.571-21.758zm38.487 0h5.44v21.758h-5.44V58.331zm-.771-7.39c0-.876.324-1.638.975-2.29.649-.648 1.473-.974 2.47-.974.998 0 1.836.31 2.516.93.68.62 1.02 1.397 1.02 2.334 0 .936-.34 1.715-1.02 2.335-.68.62-1.518.928-2.516.928-.997 0-1.821-.324-2.47-.973-.651-.65-.975-1.414-.975-2.29zm8.568 11.742v-4.352h3.808v-6.303h5.349v6.303h5.439v4.352h-5.439v10.109c0 .967.174 1.768.52 2.403.348.634 1.127.95 2.335.95.363 0 .756-.037 1.18-.113.423-.073.8-.187 1.133-.339l.182 4.262a9.017 9.017 0 0 1-1.723.43c-.665.106-1.3.158-1.904.158-1.452 0-2.629-.203-3.537-.612-.906-.407-1.624-.966-2.152-1.678a6.172 6.172 0 0 1-1.088-2.448 14.11 14.11 0 0 1-.295-2.968V62.683h-3.808zm29.511-4.988c1.421 0 2.637.25 3.65.749 1.012.499 1.843 1.155 2.492 1.972a7.973 7.973 0 0 1 1.43 2.811c.301 1.057.453 2.145.453 3.262v13.6h-5.441V68.123c0-.636-.044-1.292-.136-1.974a5.677 5.677 0 0 0-.566-1.857 3.73 3.73 0 0 0-1.224-1.383c-.529-.364-1.232-.545-2.108-.545-.877 0-1.633.167-2.268.499a4.722 4.722 0 0 0-1.586 1.337 5.967 5.967 0 0 0-.951 1.883 7.248 7.248 0 0 0-.317 2.129v11.877h-5.44V45.817h5.44v15.55h.09a5.31 5.31 0 0 1 .928-1.338 7.42 7.42 0 0 1 1.43-1.177 7.423 7.423 0 0 1 1.858-.839 7.805 7.805 0 0 1 2.266-.318m23.71-9.7h5.712v32.094h-5.712V47.995zm11.379 10.336h5.168v3.489h.091c.482-1.087 1.321-2.047 2.514-2.877 1.195-.832 2.608-1.248 4.24-1.248 1.42 0 2.636.25 3.648.749 1.013.499 1.844 1.155 2.495 1.972a8.003 8.003 0 0 1 1.428 2.811c.301 1.057.453 2.145.453 3.262v13.6h-5.44V68.031c0-.634-.046-1.299-.136-1.995a5.413 5.413 0 0 0-.589-1.881 3.927 3.927 0 0 0-1.247-1.382c-.529-.362-1.232-.544-2.108-.544-.877 0-1.633.175-2.266.522a4.788 4.788 0 0 0-1.564 1.336 5.927 5.927 0 0 0-.93 1.882 7.498 7.498 0 0 0-.319 2.154v11.966h-5.438V58.331m22.121 4.352v-4.352h3.808v-6.303h5.35v6.303h5.44v4.352h-5.44v10.109c0 .967.173 1.768.521 2.403.346.634 1.125.95 2.335.95.362 0 .754-.037 1.178-.113.423-.073.8-.187 1.133-.339l.182 4.262a8.979 8.979 0 0 1-1.723.43c-.665.106-1.3.158-1.904.158-1.45 0-2.629-.203-3.536-.612-.906-.407-1.625-.966-2.153-1.678a6.172 6.172 0 0 1-1.088-2.448 14.176 14.176 0 0 1-.295-2.968V62.683h-3.808zm37.264 17.406h-5.168v-3.49h-.09c-.484 1.089-1.323 2.048-2.517 2.878-1.194.831-2.606 1.248-4.238 1.248-1.421 0-2.637-.25-3.649-.749-1.013-.499-1.844-1.156-2.494-1.971a7.99 7.99 0 0 1-1.428-2.81 11.842 11.842 0 0 1-.453-3.266V58.331h5.44v12.058c0 .635.045 1.3.136 1.995a5.36 5.36 0 0 0 .589 1.88c.302.56.718 1.021 1.247 1.383.528.364 1.232.545 2.108.545.847 0 1.595-.173 2.244-.521a4.773 4.773 0 0 0 1.587-1.338 5.94 5.94 0 0 0 .929-1.881c.21-.709.317-1.428.317-2.153V58.331h5.44v21.758m5.486-21.758h5.439v21.758h-5.439V58.331zm-.771-7.39c0-.876.324-1.638.974-2.29.65-.648 1.474-.974 2.471-.974.998 0 1.836.31 2.516.93.68.62 1.019 1.397 1.019 2.334 0 .936-.339 1.715-1.019 2.335-.68.62-1.518.928-2.516.928-.997 0-1.821-.324-2.471-.973-.65-.65-.974-1.414-.974-2.29zm8.568 11.742v-4.352h3.808v-6.303h5.349v6.303h5.44v4.352h-5.44v10.109c0 .967.174 1.768.521 2.403.347.634 1.126.95 2.335.95.363 0 .755-.037 1.179-.113.422-.073.8-.187 1.133-.339l.181 4.262a8.987 8.987 0 0 1-1.722.43c-.665.106-1.3.158-1.904.158-1.451 0-2.629-.203-3.536-.612-.907-.407-1.625-.966-2.153-1.678a6.172 6.172 0 0 1-1.088-2.448 14.11 14.11 0 0 1-.295-2.968V62.683h-3.808zM145.631 82.02h-4.066c-.825 0-1.457-.443-1.521-1.269l-.064-1.588c-2.921 2.352-6.413 3.62-10.095 3.62-7.109 0-10.029-4.506-10.029-11.364V52.643c0-1.079.635-1.46 1.649-1.46h4.446c1.014 0 1.585.314 1.585 1.46v17.442c0 3.494.891 5.904 4.7 5.904 2.411 0 5.459-1.332 7.363-3.044V52.643c0-1.079.572-1.46 1.586-1.46h4.508c1.016 0 1.588.314 1.588 1.46v27.601c0 1.333-.382 1.776-1.65 1.776M42.318 52.449c0-.76.382-1.269 1.143-1.269h5.369c.762 0 1.207.445 1.207 1.269l-.001 27.984c0 1.144-.508 1.587-1.588 1.587h-4.479c-1.139 0-1.651-.443-1.651-1.587V52.449m112.907 0c0-.76.382-1.269 1.143-1.269h5.369c.763 0 1.207.445 1.207 1.269v27.984c0 1.144-.509 1.587-1.588 1.587h-4.48c-1.139 0-1.651-.443-1.651-1.587V52.449M84.065 82.02h-4.569c-1.143 0-1.524-.571-1.524-1.651V63.103c0-3.491-.949-5.967-4.824-5.967-2.476 0-5.523 1.333-7.491 3.048v20.249c0 1.082-.445 1.587-1.522 1.587h-4.636c-.953 0-1.524-.505-1.524-1.523V52.775c0-1.016.446-1.587 1.588-1.587h4.126c.888 0 1.462.253 1.523 1.205l.064 1.695c2.923-2.348 6.603-3.679 10.285-3.679 7.111 0 10.03 4.443 10.03 11.362v18.598c0 1.08-.38 1.651-1.526 1.651zm22.627-39.501a4.656 4.656 0 1 0-9.313 0 4.656 4.656 0 0 0 4.657 4.654 4.655 4.655 0 0 0 4.656-4.654zm6.624 8.661c.761 0 1.207.253 1.207 1.079v4.472c0 .761-.508 1.205-1.271 1.205h-7.357v22.497c0 1.144-.507 1.587-1.651 1.587h-4.419c-1.142 0-1.649-.443-1.649-1.587l-.001-22.497h-7.358c-.761 0-1.269-.444-1.269-1.205v-4.472c0-.826.444-1.079 1.205-1.079h22.563m72.152-8.661a4.656 4.656 0 1 0-9.313 0 4.656 4.656 0 0 0 9.313 0zm6.624 8.661c.763 0 1.207.253 1.207 1.079v4.472c0 .761-.508 1.205-1.27 1.205h-7.357l-.001 22.497c0 1.144-.507 1.587-1.651 1.587h-4.417c-1.144 0-1.651-.443-1.651-1.587V57.936h-7.357c-.763 0-1.271-.444-1.271-1.205v-4.472c0-.826.445-1.079 1.207-1.079h22.561" fill="#FFF"/></g></svg>