<svg xmlns="http://www.w3.org/2000/svg" style="isolation:isolate" viewBox="0 0 132 132"><defs><clipPath id="a"><path d="M0 0h132v132H0z"/></clipPath></defs><g clip-path="url(#a)"><path d="M132 124c0 4.4-3.6 8-8 8H8c-4.4 0-8-3.6-8-8V8c0-4.4 3.6-8 8-8h116c4.4 0 8 3.6 8 8v116z" fill="#FFF"/><path d="M132 124c0 4.4-3.6 8-8 8H8c-4.4 0-8-3.6-8-8V8c0-4.4 3.6-8 8-8h116c4.4 0 8 3.6 8 8v116z" fill="none" vector-effect="non-scaling-stroke" stroke-width="4" stroke="#D3D4D3" stroke-miterlimit="10"/><path d="M88.987 110.823h-2.88c-.574 0-1.027-.312-1.067-.896l-.053-1.123c-2.067 1.663-4.534 2.557-7.134 2.557-5.013 0-7.08-3.182-7.08-8.028V90.068c0-.761.454-1.032 1.16-1.032h3.147c.72 0 1.12.223 1.12 1.032v12.324c0 2.467.627 4.171 3.32 4.171 1.707 0 3.853-.942 5.2-2.151V90.068c0-.761.4-1.032 1.12-1.032h3.187c.72 0 1.12.223 1.12 1.032v19.5c0 .943-.267 1.255-1.16 1.255M16 89.932c0-.537.267-.897.8-.897h3.8c.533 0 .853.314.853.897v19.769c0 .81-.373 1.122-1.133 1.122h-3.16c-.8 0-1.16-.312-1.16-1.122V89.932m79.76 0c0-.537.267-.897.813-.897h3.787c.533 0 .853.314.853.897v19.769c0 .81-.36 1.122-1.12 1.122h-3.16c-.813 0-1.173-.312-1.173-1.122V89.932zm-50.267 20.891h-3.24c-.8 0-1.066-.404-1.066-1.166v-12.2c0-2.465-.68-4.214-3.414-4.214-1.746 0-3.906.942-5.293 2.153v14.305c0 .766-.307 1.122-1.08 1.122h-3.267c-.68 0-1.08-.356-1.08-1.076V90.161c0-.718.32-1.121 1.12-1.121h2.92c.627 0 1.027.179 1.08.852l.04 1.197c2.067-1.658 4.667-2.6 7.267-2.6 5.027 0 7.08 3.14 7.08 8.028v13.14c0 .762-.267 1.166-1.067 1.166m15.974-27.908a3.288 3.288 0 0 0-6.574 0 3.286 3.286 0 0 0 3.294 3.289 3.283 3.283 0 0 0 3.28-3.289zm4.68 6.12c.546 0 .853.178.853.762v3.159c0 .539-.36.852-.893.852h-5.2v15.893c0 .81-.36 1.122-1.16 1.122h-3.12c-.814 0-1.174-.312-1.174-1.122V93.808h-5.2c-.533 0-.893-.313-.893-.852v-3.159c0-.584.32-.762.853-.762h15.934m50.986-6.12c0-1.816-1.48-3.29-3.293-3.29a3.296 3.296 0 0 0-3.293 3.29 3.294 3.294 0 0 0 3.293 3.289 3.294 3.294 0 0 0 3.293-3.289zm4.68 6.12c.534 0 .854.178.854.762v3.159c0 .539-.36.852-.907.852h-5.2v15.893c0 .81-.36 1.122-1.16 1.122h-3.12c-.813 0-1.173-.312-1.173-1.122V93.808h-5.2c-.534 0-.894-.313-.894-.852v-3.159c0-.584.32-.762.854-.762h15.946z" fill="#4358B0"/><clipPath id="b"><path d="M132 124c0 4.4-3.6 8-8 8H8c-4.4 0-8-3.6-8-8V8c0-4.4 3.6-8 8-8h116c4.4 0 8 3.6 8 8v116z" fill="#FFF"/></clipPath><g clip-path="url(#b)"><linearGradient id="c" x1="49.99%" y1="0%" x2="49.99%" y2="100%"><stop offset="0%" stop-color="#f6f6f6"/><stop offset="97.921%" stop-color="#fff"/><stop offset="100%" stop-color="#fff"/></linearGradient><path d="M132 124c0 4.4-3.6 8-8 8H8c-4.4 0-8-3.6-8-8V8c0-4.4 3.6-8 8-8h116c4.4 0 8 3.6 8 8v116z" fill="url(#c)"/></g><path d="M132 124c0 4.4-3.6 8-8 8H8c-4.4 0-8-3.6-8-8V8c0-4.4 3.6-8 8-8h116c4.4 0 8 3.6 8 8v116z" fill="none" vector-effect="non-scaling-stroke" stroke-width="4" stroke="#D3D4D3" stroke-miterlimit="10"/><path d="M88.987 110.823h-2.88c-.574 0-1.027-.312-1.067-.896l-.053-1.123c-2.067 1.663-4.534 2.557-7.134 2.557-5.013 0-7.08-3.182-7.08-8.028V90.068c0-.761.454-1.032 1.16-1.032h3.147c.72 0 1.12.223 1.12 1.032v12.324c0 2.467.627 4.171 3.32 4.171 1.707 0 3.853-.942 5.2-2.151V90.068c0-.761.4-1.032 1.12-1.032h3.187c.72 0 1.12.223 1.12 1.032v19.5c0 .943-.267 1.255-1.16 1.255M16 89.932c0-.537.267-.897.8-.897h3.8c.533 0 .853.314.853.897v19.769c0 .81-.373 1.122-1.133 1.122h-3.16c-.8 0-1.16-.312-1.16-1.122V89.932m79.76 0c0-.537.267-.897.813-.897h3.787c.533 0 .853.314.853.897v19.769c0 .81-.36 1.122-1.12 1.122h-3.16c-.813 0-1.173-.312-1.173-1.122V89.932zm-50.267 20.891h-3.24c-.8 0-1.066-.404-1.066-1.166v-12.2c0-2.465-.68-4.214-3.414-4.214-1.746 0-3.906.942-5.293 2.153v14.305c0 .766-.307 1.122-1.08 1.122h-3.267c-.68 0-1.08-.356-1.08-1.076V90.161c0-.718.32-1.121 1.12-1.121h2.92c.627 0 1.027.179 1.08.852l.04 1.197c2.067-1.658 4.667-2.6 7.267-2.6 5.027 0 7.08 3.14 7.08 8.028v13.14c0 .762-.267 1.166-1.067 1.166m15.974-27.908a3.288 3.288 0 0 0-6.574 0 3.286 3.286 0 0 0 3.294 3.289 3.283 3.283 0 0 0 3.28-3.289zm4.68 6.12c.546 0 .853.178.853.762v3.159c0 .539-.36.852-.893.852h-5.2v15.893c0 .81-.36 1.122-1.16 1.122h-3.12c-.814 0-1.174-.312-1.174-1.122V93.808h-5.2c-.533 0-.893-.313-.893-.852v-3.159c0-.584.32-.762.853-.762h15.934m50.986-6.12c0-1.816-1.48-3.29-3.293-3.29a3.296 3.296 0 0 0-3.293 3.29 3.294 3.294 0 0 0 3.293 3.289 3.294 3.294 0 0 0 3.293-3.289zm4.68 6.12c.534 0 .854.178.854.762v3.159c0 .539-.36.852-.907.852h-5.2v15.893c0 .81-.36 1.122-1.16 1.122h-3.12c-.813 0-1.173-.312-1.173-1.122V93.808h-5.2c-.534 0-.894-.313-.894-.852v-3.159c0-.584.32-.762.854-.762h15.946z" fill="#4358B0"/></g></svg>