<svg xmlns="http://www.w3.org/2000/svg" style="isolation:isolate" viewBox="0 0 408.9 132"><defs><clipPath id="a"><path d="M0 0h408.9v132H0z"/></clipPath></defs><g clip-path="url(#a)"><path d="M408.489 124c0 4.4-3.586 8-8 8H8c-4.4 0-8-3.6-8-8V8c0-4.4 3.6-8 8-8h392.489c4.414 0 8 3.6 8 8v116z" fill="#FFF"/><path d="M408.489 124c0 4.4-3.586 8-8 8H8c-4.4 0-8-3.6-8-8V8c0-4.4 3.6-8 8-8h392.489c4.414 0 8 3.6 8 8v116z" fill="none" vector-effect="non-scaling-stroke" stroke-width="4" stroke="#D3D4D3" stroke-miterlimit="10"/><text transform="translate(232 81.909) scale(1.333)" font-family="Open Sans" font-weight="600" font-size="34" fill="#4358b0">Sign in</text><path d="M142.344 82.151h-4.064c-.825 0-1.457-.443-1.521-1.27l-.064-1.588c-2.922 2.352-6.414 3.62-10.095 3.62-7.109 0-10.029-4.505-10.029-11.364V52.773c0-1.078.636-1.461 1.649-1.461h4.445c1.015 0 1.587.316 1.587 1.461v17.443c0 3.493.889 5.904 4.697 5.904 2.412 0 5.459-1.332 7.364-3.045V52.773c0-1.078.572-1.461 1.587-1.461h4.507c1.017 0 1.589.316 1.589 1.461v27.602c0 1.333-.384 1.776-1.652 1.776M39.033 52.58c0-.761.382-1.269 1.142-1.269h5.37c.762 0 1.206.444 1.206 1.269v27.984c0 1.144-.508 1.587-1.588 1.587h-4.479c-1.14 0-1.651-.443-1.651-1.587V52.58m112.907 0c0-.761.381-1.269 1.143-1.269h5.368c.764 0 1.208.444 1.208 1.269v27.984c0 1.144-.51 1.587-1.59 1.587h-4.478c-1.14 0-1.651-.443-1.651-1.587V52.58zM80.78 82.151h-4.569c-1.143 0-1.524-.572-1.524-1.651V63.232c0-3.489-.95-5.967-4.824-5.967-2.476 0-5.523 1.335-7.491 3.048v20.251c0 1.081-.445 1.587-1.523 1.587h-4.634c-.954 0-1.524-.506-1.524-1.523V52.905c0-1.017.445-1.588 1.586-1.588h4.127c.888 0 1.461.255 1.523 1.207l.064 1.695c2.921-2.348 6.602-3.68 10.285-3.68 7.111 0 10.029 4.442 10.029 11.362V80.5c0 1.079-.38 1.651-1.525 1.651m22.627-39.503a4.657 4.657 0 1 0-9.314 0 4.656 4.656 0 0 0 4.658 4.655 4.654 4.654 0 0 0 4.656-4.655zm6.624 8.663c.761 0 1.206.253 1.206 1.078v4.472c0 .76-.509 1.206-1.27 1.206h-7.358v22.497c0 1.144-.506 1.587-1.65 1.587h-4.418c-1.144 0-1.652-.443-1.652-1.587V58.067h-7.357c-.761 0-1.269-.446-1.269-1.206v-4.472c0-.825.444-1.078 1.205-1.078h22.563zm72.152-8.663a4.655 4.655 0 1 0-9.312 0 4.654 4.654 0 0 0 4.656 4.655 4.654 4.654 0 0 0 4.656-4.655zm6.624 8.663c.761 0 1.206.253 1.206 1.078v4.472c0 .76-.508 1.206-1.27 1.206h-7.356l-.002 22.497c0 1.144-.506 1.587-1.65 1.587h-4.418c-1.144 0-1.65-.443-1.65-1.587l-.002-22.497h-7.356c-.762 0-1.27-.446-1.27-1.206v-4.472c0-.825.445-1.078 1.205-1.078h22.563z" fill="#4358B0"/><clipPath id="b"><path d="M408.489 124c0 4.4-3.586 8-8 8H8c-4.4 0-8-3.6-8-8V8c0-4.4 3.6-8 8-8h392.489c4.414 0 8 3.6 8 8v116z" fill="#FFF"/></clipPath><g clip-path="url(#b)"><linearGradient id="c" x1="50.001%" y1="0%" x2="50.001%" y2="100%"><stop offset="0%" stop-color="#f6f6f6"/><stop offset="97.921%" stop-color="#fff"/><stop offset="100%" stop-color="#fff"/></linearGradient><path d="M408.489 124c0 4.4-3.586 8-8 8H8c-4.4 0-8-3.6-8-8V8c0-4.4 3.6-8 8-8h392.489c4.414 0 8 3.6 8 8v116z" fill="url(#c)"/></g><path d="M408.489 124c0 4.4-3.586 8-8 8H8c-4.4 0-8-3.6-8-8V8c0-4.4 3.6-8 8-8h392.489c4.414 0 8 3.6 8 8v116z" fill="none" vector-effect="non-scaling-stroke" stroke-width="4" stroke="#D3D4D3" stroke-miterlimit="10"/><path d="M251.9 56.533c-.604-.785-1.457-1.442-2.561-1.972-1.103-.528-2.214-.793-3.332-.793a8.17 8.17 0 0 0-1.995.251 6.062 6.062 0 0 0-1.812.769 4.268 4.268 0 0 0-1.337 1.36c-.348.56-.523 1.232-.523 2.019 0 .724.152 1.344.455 1.858.301.514.717.951 1.246 1.314.528.362 1.171.68 1.927.952.755.272 1.585.544 2.493.816 1.027.333 2.092.71 3.196 1.134a12.41 12.41 0 0 1 3.038 1.678 8.309 8.309 0 0 1 2.266 2.628c.59 1.058.883 2.373.883 3.945 0 1.721-.316 3.225-.952 4.509-.633 1.286-1.48 2.351-2.537 3.196-1.059.847-2.299 1.482-3.718 1.904a15.615 15.615 0 0 1-4.488.635c-2.086 0-4.125-.384-6.12-1.156-1.994-.771-3.628-1.911-4.896-3.421l4.08-3.81c.786 1.088 1.836 1.951 3.151 2.584 1.313.635 2.607.952 3.876.952.664 0 1.344-.082 2.039-.249a5.399 5.399 0 0 0 1.882-.839 4.703 4.703 0 0 0 1.36-1.472c.347-.59.522-1.322.522-2.2 0-.845-.198-1.548-.591-2.106-.393-.56-.921-1.044-1.585-1.452-.666-.408-1.451-.763-2.359-1.066-.905-.301-1.857-.618-2.855-.952a27.719 27.719 0 0 1-2.901-1.088 9.567 9.567 0 0 1-2.607-1.677c-.77-.693-1.398-1.548-1.881-2.56-.485-1.013-.725-2.275-.725-3.787 0-1.63.34-3.037 1.018-4.216a9.053 9.053 0 0 1 2.675-2.924c1.103-.769 2.359-1.344 3.764-1.721a16.37 16.37 0 0 1 4.283-.568c1.633 0 3.286.288 4.965.861 1.677.576 3.135 1.438 4.373 2.584l-3.717 4.08m8.341 3.628h5.44V81.92h-5.44V60.161zm-.77-7.39c0-.876.324-1.639.974-2.29.651-.648 1.474-.974 2.471-.974.997 0 1.836.31 2.517.93.679.62 1.019 1.398 1.019 2.334 0 .937-.34 1.716-1.019 2.336-.681.618-1.52.928-2.517.928-.997 0-1.82-.324-2.471-.975-.65-.649-.974-1.412-.974-2.289m22.218 11.197c-1 0-1.88.181-2.653.543a5.773 5.773 0 0 0-1.96 1.469 6.6 6.6 0 0 0-1.213 2.191 8.187 8.187 0 0 0-.44 2.712c0 .873.146 1.716.44 2.529a7.27 7.27 0 0 0 1.213 2.192 6.043 6.043 0 0 0 1.96 1.559c.773.392 1.64.586 2.6.586 1 0 1.893-.186 2.707-.564.8-.377 1.48-.881 2.026-1.513.56-.633 1-1.364 1.294-2.192a7.432 7.432 0 0 0 .453-2.597c0-.935-.147-1.824-.453-2.667a6.608 6.608 0 0 0-1.294-2.215 5.856 5.856 0 0 0-2.013-1.49c-.787-.362-1.68-.543-2.667-.543zm11.6-3.807v19.81c0 1.964-.24 3.74-.72 5.326-.493 1.588-1.24 2.932-2.253 4.036-1.013 1.102-2.28 1.956-3.827 2.56-1.546.604-3.373.908-5.48.908-.88 0-1.813-.077-2.8-.226a19.284 19.284 0 0 1-2.893-.682c-.96-.302-1.867-.68-2.747-1.133a13.606 13.606 0 0 1-2.36-1.541l3.134-4.216a11.152 11.152 0 0 0 3.586 2.289c1.32.529 2.667.793 4.027.793 1.307 0 2.4-.189 3.293-.568.894-.38 1.6-.902 2.12-1.57a6.097 6.097 0 0 0 1.147-2.366c.227-.91.333-1.91.333-3.002v-1.594h-.093a7.636 7.636 0 0 1-3.013 2.451c-1.227.564-2.587.847-4.107.847-1.627 0-3.107-.303-4.44-.907-1.333-.604-2.453-1.42-3.373-2.448-.92-1.027-1.64-2.228-2.16-3.603a12.548 12.548 0 0 1-.76-4.376c0-1.57.24-3.052.746-4.442.494-1.39 1.2-2.599 2.12-3.627a10.24 10.24 0 0 1 3.36-2.448c1.32-.604 2.787-.907 4.427-.907 1.533 0 2.973.318 4.307.954 1.32.633 2.386 1.616 3.173 2.945h.08v-3.263h5.173m5.4 0h5.16v3.49h.094c.48-1.088 1.32-2.047 2.52-2.878 1.186-.832 2.6-1.248 4.24-1.248 1.413 0 2.626.251 3.64.748 1.013.5 1.853 1.156 2.493 1.974a7.777 7.777 0 0 1 1.427 2.81c.306 1.058.453 2.146.453 3.263v13.6h-5.44V69.861c0-.634-.04-1.298-.133-1.994-.094-.695-.28-1.322-.587-1.882a3.94 3.94 0 0 0-1.253-1.381c-.52-.363-1.227-.545-2.107-.545-.867 0-1.627.174-2.267.521a4.94 4.94 0 0 0-1.56 1.339c-.4.542-.72 1.17-.933 1.881a7.903 7.903 0 0 0-.307 2.152V81.92h-5.44V60.161m35.534 0h5.44V81.92h-5.44V60.161zm-.774-7.39c0-.876.334-1.639.974-2.29.653-.648 1.48-.974 2.48-.974s1.826.31 2.506.93c.68.62 1.027 1.398 1.027 2.334 0 .937-.347 1.716-1.027 2.336-.68.618-1.506.928-2.506.928-1 0-1.827-.324-2.48-.975-.64-.649-.974-1.412-.974-2.289m11.707 7.39h5.16v3.49h.093c.48-1.088 1.32-2.047 2.52-2.878 1.187-.832 2.6-1.248 4.24-1.248 1.414 0 2.627.251 3.64.748 1.014.5 1.84 1.156 2.494 1.974a7.76 7.76 0 0 1 1.426 2.81c.307 1.058.454 2.146.454 3.263v13.6h-5.44V69.861c0-.634-.04-1.298-.134-1.994-.093-.695-.28-1.322-.586-1.882a3.933 3.933 0 0 0-1.254-1.381c-.52-.363-1.226-.545-2.106-.545-.867 0-1.627.174-2.267.521a4.918 4.918 0 0 0-1.56 1.339 5.824 5.824 0 0 0-.933 1.881 7.412 7.412 0 0 0-.32 2.152V81.92h-5.427V60.161m-202.812 21.99h-4.064c-.825 0-1.457-.443-1.521-1.27l-.064-1.588c-2.922 2.352-6.414 3.62-10.095 3.62-7.109 0-10.029-4.505-10.029-11.364V52.773c0-1.078.636-1.461 1.649-1.461h4.445c1.015 0 1.587.316 1.587 1.461v17.443c0 3.493.889 5.904 4.697 5.904 2.412 0 5.459-1.332 7.364-3.045V52.773c0-1.078.572-1.461 1.587-1.461h4.507c1.017 0 1.589.316 1.589 1.461v27.602c0 1.333-.384 1.776-1.652 1.776M39.033 52.58c0-.761.382-1.269 1.142-1.269h5.37c.762 0 1.206.444 1.206 1.269v27.984c0 1.144-.508 1.587-1.588 1.587h-4.479c-1.14 0-1.651-.443-1.651-1.587V52.58m112.907 0c0-.761.381-1.269 1.143-1.269h5.368c.764 0 1.208.444 1.208 1.269v27.984c0 1.144-.51 1.587-1.59 1.587h-4.478c-1.14 0-1.651-.443-1.651-1.587V52.58zM80.78 82.151h-4.569c-1.143 0-1.524-.572-1.524-1.651V63.232c0-3.489-.95-5.967-4.824-5.967-2.476 0-5.523 1.335-7.491 3.048v20.251c0 1.081-.445 1.587-1.523 1.587h-4.634c-.954 0-1.524-.506-1.524-1.523V52.905c0-1.017.445-1.588 1.586-1.588h4.127c.888 0 1.461.255 1.523 1.207l.064 1.695c2.921-2.348 6.602-3.68 10.285-3.68 7.111 0 10.029 4.442 10.029 11.362V80.5c0 1.079-.38 1.651-1.525 1.651m22.627-39.503a4.657 4.657 0 1 0-9.314 0 4.656 4.656 0 0 0 4.658 4.655 4.654 4.654 0 0 0 4.656-4.655zm6.624 8.663c.761 0 1.206.253 1.206 1.078v4.472c0 .76-.509 1.206-1.27 1.206h-7.358v22.497c0 1.144-.506 1.587-1.65 1.587h-4.418c-1.144 0-1.652-.443-1.652-1.587V58.067h-7.357c-.761 0-1.269-.446-1.269-1.206v-4.472c0-.825.444-1.078 1.205-1.078h22.563zm72.152-8.663a4.655 4.655 0 1 0-9.312 0 4.654 4.654 0 0 0 4.656 4.655 4.654 4.654 0 0 0 4.656-4.655zm6.624 8.663c.761 0 1.206.253 1.206 1.078v4.472c0 .76-.508 1.206-1.27 1.206h-7.356l-.002 22.497c0 1.144-.506 1.587-1.65 1.587h-4.418c-1.144 0-1.65-.443-1.65-1.587l-.002-22.497h-7.356c-.762 0-1.27-.446-1.27-1.206v-4.472c0-.825.445-1.078 1.205-1.078h22.563z" fill="#4358B0"/></g></svg>